<svg width="174" height="49" viewBox="0 0 174 49" fill="none" xmlns="http://www.w3.org/2000/svg">
<path fill-rule="evenodd" clip-rule="evenodd" d="M173.034 28.8263V30.9251H165.577V18.0557H173.034V20.1546H168.155V23.3766H172.481V25.4202H168.155V28.8263H173.034ZM160.431 30.1335C159.406 30.6614 158.219 30.9251 156.869 30.9251H152.376V18.0741H156.869C158.219 18.0741 159.406 18.3382 160.431 18.8658C161.456 19.3937 162.247 20.1453 162.806 21.1212C163.365 22.097 163.644 23.2293 163.644 24.518C163.644 25.8069 163.365 26.9331 162.806 27.8965C162.247 28.8602 161.456 29.6059 160.431 30.1335ZM159.906 21.379C159.17 20.6241 158.127 20.2467 156.776 20.2467H154.954V28.7342H156.776C158.127 28.7342 159.17 28.366 159.906 27.6295C160.643 26.8931 161.011 25.856 161.011 24.518C161.011 23.1803 160.643 22.1338 159.906 21.379ZM153.315 34.458V42.3932C153.315 43.4858 153.079 44.4092 152.606 45.1641C152.134 45.9189 151.502 46.4868 150.71 46.8671C149.918 47.2478 149.037 47.4378 148.068 47.4378C147.111 47.4378 146.242 47.2478 145.463 46.8671C144.683 46.4868 144.066 45.9189 143.612 45.1641C143.158 44.4092 142.931 43.4858 142.931 42.3932V34.458H145.509V42.4116C145.509 43.2832 145.736 43.9489 146.19 44.4092C146.644 44.8695 147.282 45.0996 148.105 45.0996C148.939 45.0996 149.584 44.8695 150.038 44.4092C150.492 43.9489 150.719 43.2832 150.719 42.4116V34.458H153.315ZM141.422 22.1062V30.9251H138.844V18.0557H141.422L147.258 26.8931V18.0557H149.835V30.9251H147.258L141.422 22.1062ZM133.541 28.4765H128.423L127.576 30.9251H124.87L129.491 18.0557H132.492L137.113 30.9251H134.388L133.541 28.4765ZM130.982 21.0383L129.123 26.4144H132.842L130.982 21.0383ZM125.919 13.8233C124.913 14.388 123.808 14.6702 122.605 14.6702C121.402 14.6702 120.297 14.388 119.291 13.8233C118.285 13.2588 117.487 12.4764 116.898 11.4759C116.309 10.4756 116.014 9.3433 116.014 8.07894C116.014 6.82705 116.309 5.70109 116.898 4.70049C117.487 3.70034 118.285 2.91785 119.291 2.35315C120.297 1.78866 121.402 1.5062 122.605 1.5062C123.82 1.5062 124.928 1.78866 125.928 2.35315C126.929 2.91785 127.72 3.70034 128.303 4.70049C128.886 5.70109 129.178 6.82705 129.178 8.07894C129.178 9.3433 128.886 10.4756 128.303 11.4759C127.72 12.4764 126.926 13.2588 125.919 13.8233ZM126.03 5.82367C125.698 5.17925 125.238 4.68524 124.649 4.34154C124.06 3.99806 123.379 3.82604 122.605 3.82604C121.832 3.82604 121.148 3.99806 120.552 4.34154C119.957 4.68524 119.494 5.17925 119.162 5.82367C118.831 6.46799 118.665 7.21997 118.665 8.07894C118.665 8.93825 118.831 9.69313 119.162 10.3436C119.494 10.9943 119.957 11.4942 120.552 11.8441C121.148 12.1939 121.832 12.3688 122.605 12.3688C123.379 12.3688 124.06 12.1939 124.649 11.8441C125.238 11.4942 125.698 10.9943 126.03 10.3436C126.361 9.69313 126.527 8.93825 126.527 8.07894C126.527 7.21997 126.361 6.46799 126.03 5.82367ZM111.522 1.69035H114.099V14.5414H111.522V1.69035ZM108.668 21.9405C108.373 21.4005 107.968 20.9894 107.453 20.7069C106.937 20.4247 106.336 20.2835 105.648 20.2835C104.887 20.2835 104.212 20.4555 103.623 20.799C103.034 21.1427 102.574 21.6338 102.242 22.2719C101.911 22.9102 101.745 23.6467 101.745 24.4812C101.745 25.3405 101.914 26.0894 102.252 26.7274C102.589 27.3657 103.058 27.8569 103.66 28.2003C104.261 28.544 104.961 28.7158 105.759 28.7158C106.741 28.7158 107.545 28.4552 108.171 27.9333C108.797 27.4118 109.208 26.6846 109.404 25.7516H104.986V23.7817H111.945V26.0278C111.773 26.9238 111.405 27.7524 110.84 28.5133C110.276 29.2745 109.549 29.8849 108.659 30.3452C107.769 30.8055 106.772 31.0357 105.667 31.0357C104.427 31.0357 103.307 30.7566 102.307 30.198C101.306 29.6395 100.521 28.8631 99.9501 27.8689C99.3794 26.8747 99.0941 25.7456 99.0941 24.4812C99.0941 23.2172 99.3794 22.0849 99.9501 21.0844C100.521 20.0841 101.306 19.3049 102.307 18.7462C103.307 18.1878 104.421 17.9084 105.648 17.9084C107.097 17.9084 108.355 18.2614 109.423 18.9671C110.491 19.673 111.227 20.6641 111.632 21.9405H108.668ZM106.348 14.5414L103.513 9.53347H102.298V14.5414H99.72V1.69035H104.544C105.538 1.69035 106.285 1.86515 107.084 2.21497C107.784 2.5648 108.309 3.03743 108.659 3.63265C109.009 4.22819 109.183 4.89389 109.183 5.63028C109.183 6.47723 108.938 7.24123 108.447 7.92251C107.956 8.60368 107.226 9.07319 106.256 9.33094L109.331 14.5414H106.348ZM106.532 5.6855C106.532 5.09641 106.36 4.63926 106.017 4.31393C105.673 3.98882 105.151 3.82604 104.452 3.82604H102.298V7.6003H104.452C105.151 7.6003 105.673 7.43173 106.017 7.09404C106.36 6.75658 106.532 6.28706 106.532 5.6855ZM107.775 35.2496C108.8 35.7775 109.591 36.5292 110.15 37.505C110.708 38.4808 110.988 39.6131 110.988 40.9019C110.988 42.1907 110.708 43.317 110.15 44.2804C109.591 45.244 108.8 45.9898 107.775 46.5173C106.75 47.0452 105.562 47.309 104.212 47.309H99.72V34.458H104.212C105.562 34.458 106.75 34.722 107.775 35.2496ZM102.298 36.6304V45.1181H104.12C105.47 45.1181 106.514 44.7498 107.25 44.0134C107.987 43.2769 108.355 42.2399 108.355 40.9019C108.355 39.5642 107.987 38.5176 107.25 37.7627C106.514 37.0079 105.47 36.6304 104.12 36.6304H102.298ZM120.488 30.9251L117.653 25.9173H116.437V30.9251H113.86V18.0741H118.684C119.678 18.0741 120.525 18.249 121.224 18.5989C121.924 18.9487 122.449 19.4213 122.799 20.0165C123.148 20.612 123.323 21.2777 123.323 22.0142C123.323 22.861 123.078 23.6251 122.587 24.3063C122.096 24.9876 121.365 25.4571 120.396 25.7148L123.471 30.9251H120.488ZM120.672 22.0694C120.672 21.4802 120.5 21.0231 120.156 20.6977C119.813 20.3727 119.291 20.2098 118.592 20.2098H116.437V23.9842H118.592C119.291 23.9842 119.813 23.8155 120.156 23.4778C120.5 23.1403 120.672 22.6709 120.672 22.0694ZM115.572 35.1208C116.578 34.5563 117.683 34.2738 118.886 34.2738C120.101 34.2738 121.209 34.5563 122.209 35.1208C123.21 35.6855 124.001 36.468 124.584 37.4681C125.167 38.4687 125.459 39.5947 125.459 40.8467C125.459 42.1109 125.167 43.2433 124.584 44.2435C124.001 45.244 123.206 46.0265 122.2 46.591C121.194 47.1557 120.089 47.4378 118.886 47.4378C117.683 47.4378 116.578 47.1557 115.572 46.591C114.566 46.0265 113.768 45.244 113.179 44.2435C112.589 43.2433 112.295 42.1109 112.295 40.8467C112.295 39.5947 112.589 38.4687 113.179 37.4681C113.768 36.468 114.566 35.6855 115.572 35.1208ZM115.443 43.1112C115.775 43.762 116.238 44.2619 116.833 44.6117C117.428 44.9615 118.113 45.1365 118.886 45.1365C119.659 45.1365 120.341 44.9615 120.93 44.6117C121.519 44.2619 121.979 43.762 122.311 43.1112C122.642 42.4608 122.808 41.7059 122.808 40.8467C122.808 39.9876 122.642 39.2356 122.311 38.5913C121.979 37.9469 121.519 37.4529 120.93 37.1092C120.341 36.7657 119.659 36.5937 118.886 36.5937C118.113 36.5937 117.428 36.7657 116.833 37.1092C116.238 37.4529 115.775 37.9469 115.443 38.5913C115.112 39.2356 114.946 39.9876 114.946 40.8467C114.946 41.7059 115.112 42.4608 115.443 43.1112ZM134.747 44.8603C135.085 45.1673 135.548 45.3206 136.137 45.3206C136.739 45.3206 137.211 45.1764 137.555 44.8879C137.899 44.5997 138.071 44.2223 138.071 43.7556C138.071 43.3753 137.954 43.0623 137.721 42.8166C137.488 42.5712 137.196 42.3779 136.846 42.2367C136.496 42.0957 136.015 41.9393 135.401 41.7672C134.566 41.5219 133.888 41.2794 133.367 41.04C132.845 40.8006 132.397 40.4388 132.023 39.9537C131.648 39.469 131.461 38.8215 131.461 38.0114C131.461 37.2504 131.651 36.5876 132.032 36.0229C132.412 35.4585 132.946 35.0258 133.634 34.7249C134.321 34.4243 135.106 34.2738 135.99 34.2738C137.316 34.2738 138.393 34.5961 139.221 35.2404C140.05 35.8848 140.507 36.7841 140.593 37.9377H137.758C137.733 37.4958 137.546 37.1308 137.196 36.8422C136.846 36.5539 136.383 36.4095 135.806 36.4095C135.303 36.4095 134.901 36.5385 134.6 36.7962C134.299 37.054 134.149 37.4285 134.149 37.9193C134.149 38.263 134.262 38.5485 134.49 38.7754C134.717 39.0026 134.899 39.1868 135.337 39.3277C135.674 39.469 136.15 39.6316 136.763 39.8156C137.598 40.0613 138.279 40.3067 138.807 40.5521C139.335 40.7977 139.789 41.166 140.17 41.6567C140.55 42.1478 140.74 42.7922 140.74 43.59C140.74 44.2775 140.562 44.9156 140.206 45.5047C139.85 46.0939 139.329 46.5634 138.641 46.9132C137.954 47.263 137.138 47.4378 136.193 47.4378C135.297 47.4378 134.49 47.2845 133.772 46.9775C133.054 46.6709 132.486 46.229 132.069 45.652C131.651 45.0752 131.436 44.3939 131.424 43.6083H134.186C134.223 44.1362 134.41 44.5536 134.747 44.8603ZM158.378 45.2654H162.613V47.309H155.801V34.458H158.378V45.2654Z" fill="white"/>
<path fill-rule="evenodd" clip-rule="evenodd" d="M0 0H95.0941V49H0V0Z" fill="#BE5252"/>
<path fill-rule="evenodd" clip-rule="evenodd" d="M79.4277 14.4058C78.5408 13.6751 77.366 13.309 75.9039 13.309C74.6276 13.309 73.6089 13.6358 72.8468 14.2891C72.084 14.9426 71.7033 15.8921 71.7033 17.1362C71.7033 18.0077 71.9907 18.7311 72.5668 19.3065C73.1422 19.8827 73.8575 20.3494 74.7137 20.7067C75.5691 21.0648 76.7746 21.4768 78.3309 21.9435C80.4464 22.5663 82.1734 23.1884 83.5115 23.8105C84.849 24.4332 86.0005 25.3666 86.9654 26.6108C87.9294 27.8556 88.4122 29.4892 88.4122 31.5114C88.4122 33.2544 87.9607 34.8719 87.0587 36.3654C86.1558 37.8589 84.8337 39.0491 83.0915 39.9359C81.3486 40.8226 79.2796 41.2661 76.884 41.2661C74.6124 41.2661 72.5668 40.8774 70.7465 40.0993C68.9263 39.3218 67.4867 38.2017 66.4293 36.7387C65.3712 35.2766 64.8264 33.5497 64.7958 31.5582H71.7966C71.89 32.8963 72.364 33.9545 73.2202 34.7319C74.0756 35.51 75.2505 35.8987 76.744 35.8987C78.2682 35.8987 79.4663 35.5333 80.3377 34.8019C81.2085 34.0712 81.6446 33.1143 81.6446 31.9315C81.6446 30.9674 81.3486 30.174 80.7578 29.5512C80.1664 28.9291 79.4276 28.439 78.5408 28.081C77.6541 27.7237 76.4325 27.327 74.877 26.8909C72.7607 26.2688 71.0419 25.654 69.7197 25.0472C68.3968 24.4405 67.2614 23.5231 66.3127 22.2936C65.3631 21.0648 64.8891 19.4232 64.8891 17.3695C64.8891 15.4407 65.3712 13.7605 66.3359 12.3289C67.3 10.8981 68.6536 9.80132 70.3964 9.03854C72.1387 8.27643 74.1303 7.89499 76.3706 7.89499C79.731 7.89499 82.4614 8.71177 84.5617 10.3453C86.662 11.9789 87.8208 14.2585 88.0388 17.1829H80.8512C80.7884 16.0628 80.3145 15.1373 79.4277 14.4058ZM56.0212 39.1192C53.4696 40.5506 50.6692 41.2661 47.6202 41.2661C44.5704 41.2661 41.77 40.5506 39.219 39.1192C36.6674 37.6883 34.6451 35.7047 33.1515 33.1683C31.658 30.6327 30.9113 27.7623 30.9113 24.5572C30.9113 21.3834 31.658 18.5291 33.1515 15.9927C34.6451 13.4571 36.6674 11.4735 39.219 10.0419C41.77 8.61112 44.5704 7.89499 47.6202 7.89499C50.7006 7.89499 53.5082 8.61112 56.0446 10.0419C58.5802 11.4735 60.5872 13.4571 62.0654 15.9927C63.5429 18.5291 64.2823 21.3834 64.2823 24.5572C64.2823 27.7623 63.5429 30.6327 62.0654 33.1683C60.5872 35.7047 58.5722 37.6883 56.0212 39.1192ZM56.3013 18.8398C55.4612 17.2062 54.2944 15.9541 52.8009 15.0827C51.3073 14.2119 49.5804 13.7758 47.6202 13.7758C45.6598 13.7758 43.925 14.2119 42.4161 15.0827C40.9066 15.9541 39.7324 17.2062 38.8924 18.8398C38.0522 20.4733 37.6321 22.3797 37.6321 24.5572C37.6321 26.7355 38.0522 28.6491 38.8924 30.2979C39.7324 31.9475 40.9066 33.215 42.4161 34.1018C43.925 34.9886 45.6598 35.432 47.6202 35.432C49.5804 35.432 51.3073 34.9886 52.8009 34.1018C54.2944 33.215 55.4612 31.9475 56.3013 30.2979C57.1414 28.6491 57.5615 26.7355 57.5615 24.5572C57.5615 22.3797 57.1414 20.4733 56.3013 18.8398ZM16.6528 20.7067C17.5082 21.0648 18.7136 21.4768 20.2699 21.9435C22.3855 22.5663 24.1124 23.1884 25.4506 23.8105C26.788 24.4332 27.9396 25.3666 28.9043 26.6108C29.8685 27.8556 30.3513 29.4892 30.3513 31.5114C30.3513 33.2544 29.8998 34.8719 28.9977 36.3654C28.0949 37.8589 26.7727 39.0491 25.0305 39.9359C23.2876 40.8226 21.2186 41.2661 18.8231 41.2661C16.5514 41.2661 14.5058 40.8774 12.6855 40.0993C10.8654 39.3218 9.42578 38.2017 8.36829 36.7387C7.31013 35.2766 6.76547 33.5497 6.73485 31.5582H13.7357C13.8291 32.8963 14.3031 33.9545 15.1593 34.7319C16.0147 35.51 17.1895 35.8987 18.683 35.8987C20.2072 35.8987 21.4053 35.5333 22.2768 34.8019C23.1476 34.0712 23.5837 33.1143 23.5837 31.9315C23.5837 30.9674 23.2876 30.174 22.6969 29.5512C22.1054 28.9291 21.3667 28.439 20.4799 28.081C19.5932 27.7237 18.3716 27.327 16.8161 26.8909C14.6998 26.2688 12.9809 25.654 11.6588 25.0472C10.3359 24.4405 9.20044 23.5231 8.25161 22.2936C7.30212 21.0648 6.82815 19.4232 6.82815 17.3695C6.82815 15.4407 7.31013 13.7605 8.27499 12.3289C9.23907 10.8981 10.5926 9.80132 12.3355 9.03854C14.0777 8.27643 16.0693 7.89499 18.3097 7.89499C21.6701 7.89499 24.4005 8.71177 26.5007 10.3453C28.601 11.9789 29.7598 14.2585 29.9778 17.1829H22.7903C22.7275 16.0628 22.2535 15.1373 21.3667 14.4058C20.4799 13.6751 19.3051 13.309 17.843 13.309C16.5667 13.309 15.5479 13.6358 14.7858 14.2891C14.0231 14.9426 13.6424 15.8921 13.6424 17.1362C13.6424 18.0077 13.9296 18.7311 14.5058 19.3065C15.0812 19.8827 15.7966 20.3494 16.6528 20.7067Z" fill="white"/>
</svg>
