<svg width="144" height="19" viewBox="0 0 144 19" fill="none" xmlns="http://www.w3.org/2000/svg">
<path d="M9.13256 -0.000976562C10.3536 0.0430234 11.6176 0.0430243 12.8376 0.0860243C13.9053 0.0821732 14.9562 0.352465 15.8896 0.871024C16.4738 1.21355 16.9757 1.68019 17.3598 2.23796C17.7439 2.79574 18.0009 3.43105 18.1126 4.09902C18.2284 4.93741 18.3012 5.78118 18.3306 6.62702C18.3746 8.45802 18.3306 10.289 18.3306 12.12C18.368 13.0773 18.2501 14.0344 17.9816 14.954C17.73 15.7858 17.2489 16.5298 16.5935 17.1004C15.9381 17.6711 15.135 18.0453 14.2766 18.18C13.4401 18.3179 12.5943 18.3911 11.7466 18.399C9.91555 18.443 8.12856 18.399 6.29756 18.399C5.34024 18.4364 4.38319 18.3186 3.46356 18.05C2.63176 17.7985 1.8878 17.3174 1.31715 16.662C0.746498 16.0066 0.372304 15.2035 0.237556 14.345C0.100108 13.5092 0.0272255 12.664 0.0195556 11.817C-0.0244444 9.98602 0.0195556 8.15502 0.0195556 6.32402C-0.0178717 5.36671 0.0999874 4.40966 0.368556 3.49002C0.62012 2.65823 1.10123 1.91427 1.75661 1.34362C2.41199 0.772967 3.21506 0.398772 4.07356 0.264024C4.90938 0.126576 5.75454 0.0536933 6.60156 0.0460234C7.42956 0.00202337 8.25856 0.0020237 9.12956 0.0020237L9.13256 -0.000976562ZM16.6746 9.02302C16.6306 8.28202 16.6306 7.58402 16.6306 6.84302C16.6303 6.14365 16.5866 5.44496 16.4996 4.75102C16.464 4.03817 16.1848 3.35913 15.7086 2.82745C15.2325 2.29577 14.5882 1.94367 13.8836 1.83002C13.0797 1.68574 12.2628 1.62741 11.4466 1.65602C9.87756 1.61202 8.34655 1.61202 6.78155 1.65602C6.00798 1.64728 5.23509 1.7055 4.47156 1.83002C3.85744 1.90091 3.27897 2.15538 2.81174 2.56017C2.3445 2.96496 2.01022 3.50127 1.85256 4.09902C1.73763 4.52692 1.66462 4.96498 1.63456 5.40702C1.59056 7.06402 1.59056 8.72002 1.59056 10.377C1.59056 11.423 1.63456 12.513 1.72156 13.559C1.74424 14.2828 2.02454 14.9747 2.512 15.5102C2.99947 16.0457 3.66208 16.3896 4.38056 16.48C5.18811 16.6045 6.0045 16.6627 6.82156 16.654C8.34756 16.698 9.87356 16.654 11.4426 16.654C12.1423 16.6538 12.8413 16.6101 13.5356 16.523C14.1911 16.4882 14.8178 16.2427 15.3226 15.823C15.7148 15.5016 16.0288 15.0952 16.2409 14.6345C16.4529 14.1739 16.5574 13.671 16.5466 13.164C16.6306 11.856 16.6306 10.461 16.6746 9.02302Z" fill="white"/>
<path d="M13.8406 9.19698C13.8405 10.13 13.5633 11.042 13.044 11.8171C12.5247 12.5923 11.7868 13.1956 10.9239 13.5507C10.0611 13.9057 9.11222 13.9963 8.19777 13.811C7.28333 13.6258 6.44455 13.173 5.78791 12.5102C5.13127 11.8473 4.68638 11.0043 4.50972 10.0882C4.33307 9.17205 4.4326 8.22407 4.79569 7.3646C5.15879 6.50513 5.76907 5.77293 6.54906 5.26094C7.32905 4.74894 8.24358 4.48026 9.17656 4.48898C10.4191 4.49559 11.6083 4.99514 12.4828 5.87789C13.3573 6.76064 13.8456 7.95441 13.8406 9.19698ZM9.13256 12.249C9.73619 12.249 10.3263 12.07 10.8282 11.7346C11.3301 11.3993 11.7212 10.9226 11.9522 10.3649C12.1832 9.80724 12.2437 9.19359 12.1259 8.60156C12.0082 8.00953 11.7175 7.46571 11.2907 7.03888C10.8638 6.61206 10.32 6.32138 9.72798 6.20362C9.13595 6.08586 8.52229 6.1463 7.96461 6.37729C7.40693 6.60829 6.93028 6.99948 6.59492 7.50137C6.25956 8.00327 6.08056 8.59335 6.08056 9.19698C6.07804 9.59847 6.15526 9.99648 6.30774 10.3679C6.46023 10.7393 6.68494 11.0768 6.96885 11.3607C7.25276 11.6446 7.59021 11.8693 7.96163 12.0218C8.33306 12.1743 8.73107 12.2515 9.13256 12.249Z" fill="white"/>
<path d="M15.1045 4.27096C15.1088 4.56535 14.9967 4.84953 14.7926 5.0617C14.5885 5.27387 14.3089 5.39688 14.0145 5.40396C13.7946 5.40827 13.5784 5.34727 13.3931 5.22866C13.2079 5.11006 13.062 4.93918 12.9739 4.73764C12.8857 4.53611 12.8594 4.31296 12.8981 4.09644C12.9368 3.87992 13.0389 3.67974 13.1914 3.52123C13.3439 3.36271 13.54 3.25299 13.7548 3.20593C13.9697 3.15887 14.1937 3.17658 14.3985 3.25684C14.6033 3.33709 14.7797 3.47628 14.9053 3.6568C15.031 3.83731 15.1003 4.05105 15.1045 4.27096Z" fill="white"/>
<path d="M82.9645 10.732V17.507H79.0085V11.177C79.0085 9.59396 78.4645 8.50596 77.0305 8.50596C76.5872 8.51207 76.1561 8.65236 75.7941 8.90835C75.4321 9.16434 75.1561 9.52401 75.0025 9.93996C74.8975 10.2419 74.8473 10.5603 74.8545 10.88V17.507H70.8975C70.8975 17.507 70.9465 6.77496 70.8975 5.68696H74.8535V7.36796C74.8537 7.37443 74.8525 7.38086 74.8501 7.38687C74.8477 7.39288 74.8441 7.39833 74.8395 7.40291C74.8349 7.40749 74.8295 7.41109 74.8235 7.41351C74.8174 7.41592 74.811 7.4171 74.8045 7.41696H74.8535V7.36796C75.2118 6.74581 75.7328 6.23303 76.3605 5.88471C76.9883 5.53639 77.6991 5.36569 78.4165 5.39096C80.9885 5.39096 82.9665 7.12196 82.9665 10.732H82.9645ZM66.8425 -4.05749e-05C66.561 -0.022968 66.2778 0.0122665 66.0105 0.103471C65.7432 0.194676 65.4975 0.339899 65.2887 0.530113C65.0799 0.720326 64.9125 0.951461 64.7969 1.20914C64.6812 1.46682 64.6199 1.74554 64.6165 2.02796C64.614 2.30773 64.6697 2.58497 64.7801 2.84204C64.8906 3.0991 65.0533 3.33037 65.258 3.52112C65.4626 3.71188 65.7048 3.85794 65.969 3.95002C66.2332 4.0421 66.5136 4.07818 66.7925 4.05596H66.8415C67.1239 4.08304 67.4088 4.05071 67.6779 3.96104C67.947 3.87138 68.1943 3.72636 68.404 3.53533C68.6137 3.3443 68.7811 3.11149 68.8953 2.85188C69.0096 2.59227 69.0683 2.31161 69.0675 2.02796C69.0601 1.74693 68.9959 1.47029 68.879 1.21465C68.762 0.959008 68.5946 0.729619 68.3868 0.540239C68.179 0.350859 67.9352 0.205387 67.6698 0.112548C67.4044 0.0197093 67.1231 -0.0185857 66.8425 -4.05749e-05ZM64.8165 17.507H68.7165V5.68696H64.8165V17.507Z" fill="white"/>
<mask id="mask0_2015_1284" style="mask-type:luminance" maskUnits="userSpaceOnUse" x="123" y="2" width="21" height="14">
<path d="M143.962 2H123.962V16H143.962V2Z" fill="white"/>
</mask>
<g mask="url(#mask0_2015_1284)">
<path d="M143.312 4.15666C143.201 3.74037 142.983 3.36043 142.679 3.05489C142.376 2.74935 141.997 2.52891 141.582 2.41566C140.052 2.00366 133.936 2.00366 133.936 2.00366C133.936 2.00366 127.817 2.00366 126.291 2.41566C125.875 2.52891 125.496 2.74935 125.193 3.05489C124.889 3.36043 124.671 3.74037 124.561 4.15666C124.278 5.72102 124.142 7.3081 124.152 8.89766C124.142 10.4872 124.278 12.0743 124.561 13.6387C124.671 14.055 124.889 14.4349 125.193 14.7404C125.496 15.046 125.875 15.2664 126.291 15.3797C127.817 15.7917 133.936 15.7917 133.936 15.7917C133.936 15.7917 140.055 15.7917 141.581 15.3797C141.996 15.2664 142.375 15.046 142.678 14.7404C142.982 14.4349 143.2 14.055 143.311 13.6387C143.593 12.0743 143.73 10.4872 143.72 8.89766C143.73 7.3081 143.594 5.72102 143.312 4.15666Z" fill="white"/>
<path d="M131.935 11.8065V5.98755L137.05 8.89755L131.935 11.8065Z" fill="#03001C"/>
</g>
</svg>
