<svg width="1406" height="231" viewBox="0 0 1406 231" fill="none" xmlns="http://www.w3.org/2000/svg">
<path d="M18.3538 92.0895H0V64.9434H18.3538V56.4281C18.3213 48.9848 19.6264 41.5963 22.2067 34.615C24.6424 27.9127 28.4495 21.7927 33.3844 16.6467C38.453 11.4597 44.5106 7.34329 51.1983 4.54148C58.7426 1.42027 66.8457 -0.122688 75.0085 0.00761609C84.4986 -0.101698 93.9252 1.56959 102.8 4.93493C111.161 8.18347 119.145 12.3319 126.61 17.3072L112.513 43.9192C107.712 39.7261 102.223 36.3948 96.2881 34.0728C90.2893 31.6327 83.8781 30.3677 77.4025 30.3462C69.4223 30.3462 63.5251 32.8299 59.7109 37.7973C55.9032 42.7502 53.8876 48.8492 53.9937 55.0969V64.9434H128.737V196.937H93.0953V92.0895H53.9937V196.937H18.3538V92.0895Z" fill="#07122F" fill-opacity="0.5"/>
<path d="M290.46 196.946H254.818V118.704C254.818 107.527 252.867 99.366 248.966 94.2206C247.094 91.7093 244.638 89.6935 241.81 88.3483C238.983 87.0032 235.869 86.3696 232.741 86.5024C229.007 86.5384 225.311 87.2598 221.837 88.6307C218.053 90.0888 214.51 92.1086 211.327 94.6222C207.968 97.2748 204.972 100.359 202.419 103.796C199.775 107.312 197.793 111.28 196.568 115.506V196.946H160.934V57.493H193.126V83.3079C198.362 74.339 206.128 67.1172 215.451 62.5488C225.694 57.4681 237.003 54.9132 248.434 55.0977C255.825 54.7929 263.166 56.4455 269.714 59.8884C274.991 62.8667 279.394 67.1804 282.481 72.3973C285.594 77.8329 287.713 83.7811 288.736 89.9619C289.886 96.5529 290.464 103.231 290.462 109.922L290.46 196.946Z" fill="#07122F" fill-opacity="0.5"/>
<path d="M386.216 199.609C375.828 199.76 365.515 197.815 355.894 193.89C347.302 190.386 339.512 185.17 332.997 178.56C326.482 171.95 321.379 164.083 317.997 155.438C314.538 146.715 312.779 137.411 312.813 128.027C312.751 118.435 314.464 108.915 317.866 99.9471C321.135 91.3225 326.111 83.4469 332.496 76.7926C339.099 69.9912 347.016 64.6048 355.766 60.9608C365.503 56.9377 375.958 54.9434 386.491 55.0998C396.938 54.9251 407.307 56.9208 416.944 60.9608C425.54 64.615 433.32 69.952 439.825 76.6581C446.119 83.2263 451.005 91.0129 454.181 99.5394C457.462 108.214 459.131 117.416 459.106 126.692C459.106 129.002 459.06 131.217 458.969 133.337C458.925 135.131 458.703 136.916 458.307 138.666H350.57C350.986 143.748 352.339 148.709 354.56 153.297C356.592 157.428 359.392 161.135 362.809 164.218C366.154 167.221 370.035 169.566 374.248 171.131C378.498 172.733 383.005 173.546 387.547 173.533C394.575 173.548 401.491 171.76 407.632 168.34C413.41 165.432 417.979 160.58 420.536 154.637L451.117 163.152C445.676 174.127 437.115 183.249 426.51 189.371C415.249 196.201 401.818 199.615 386.216 199.613M422.39 115.516C421.922 105.953 417.778 96.9404 410.823 90.3636C404.093 84.163 395.273 80.7324 386.124 80.7577C376.976 80.7831 368.174 84.2624 361.479 90.5002C358.209 93.6198 355.547 97.3193 353.626 101.411C351.539 105.84 350.319 110.628 350.032 115.516H422.39Z" fill="#07122F" fill-opacity="0.5"/>
<path d="M518.942 199.606C512.495 199.66 506.093 198.534 500.051 196.283C494.432 194.211 489.279 191.045 484.89 186.969C480.668 183.022 477.274 178.274 474.906 173.001C472.473 167.468 471.25 161.48 471.318 155.436C471.266 149.09 472.775 142.828 475.711 137.203C478.655 131.589 482.839 126.72 487.946 122.967C493.619 118.841 499.965 115.733 506.701 113.781C514.47 111.493 522.536 110.373 530.634 110.458C536.741 110.45 542.837 110.983 548.851 112.048C554.28 112.968 559.592 114.486 564.688 116.572V108.589C564.688 99.3701 562.071 92.273 556.838 87.2975C551.604 82.3219 543.847 79.8382 533.565 79.8464C526.117 79.8515 518.732 81.2037 511.764 83.838C504.047 86.836 496.725 90.7685 489.963 95.5477L479.038 72.9355C496.136 61.2964 516.343 55.0823 537.023 55.1038C557.061 55.1038 572.623 60.0284 583.708 69.8776C594.794 79.7268 600.334 93.9617 600.33 112.582V155.968C600.08 158.778 600.784 161.591 602.329 163.951C603.171 164.823 604.186 165.509 605.309 165.966C606.432 166.422 607.638 166.639 608.849 166.601V196.952C603.694 198.09 598.439 198.715 593.16 198.815C586.422 198.815 581.236 197.308 577.604 194.292C573.958 191.261 571.545 187.001 570.817 182.315L570.018 174.591C564.086 182.532 556.328 188.924 547.402 193.228C538.524 197.486 528.794 199.668 518.948 199.608M529.048 173.535C534.919 173.566 540.743 172.479 546.208 170.334C551.061 168.591 555.403 165.664 558.841 161.819C562.734 158.81 564.698 155.438 564.698 151.713V135.743C560.199 134.077 555.571 132.785 550.86 131.88C546.13 130.932 541.319 130.444 536.495 130.42C527.275 130.42 519.736 132.504 513.879 136.671C511.2 138.356 508.991 140.692 507.456 143.461C505.921 146.23 505.111 149.342 505.102 152.508C505.05 155.373 505.645 158.213 506.842 160.816C508.04 163.418 509.808 165.717 512.017 167.541C516.753 171.58 522.82 173.716 529.04 173.533" fill="#07122F" fill-opacity="0.5"/>
<path d="M763.12 196.946H727.464V118.704C727.464 107.527 725.516 99.3663 721.618 94.2208C719.747 91.7095 717.29 89.6937 714.463 88.3485C711.635 87.0034 708.522 86.3698 705.394 86.5026C701.657 86.5385 697.958 87.2599 694.481 88.6309C690.698 90.0875 687.157 92.1074 683.978 94.6224C680.616 97.2732 677.621 100.358 675.07 103.796C672.424 107.312 670.439 111.28 669.212 115.506V196.946H633.588V57.4933H665.781V83.3081C671.019 74.339 678.787 67.1173 688.112 62.549C698.355 57.4683 709.664 54.9135 721.095 55.0979C728.486 54.794 735.826 56.4465 742.374 59.8886C747.652 62.8669 752.055 67.1806 755.141 72.3975C758.255 77.8322 760.371 83.781 761.388 89.9622C762.544 96.5525 763.124 103.231 763.12 109.922V196.946Z" fill="#07122F" fill-opacity="0.5"/>
<path d="M851.947 199.606C842.971 199.706 834.077 197.882 825.865 194.255C817.652 190.629 810.311 185.285 804.335 178.582C798.372 171.834 793.727 164.026 790.641 155.564C787.306 146.493 785.637 136.893 785.716 127.227C785.629 117.626 787.203 108.082 790.368 99.0172C793.274 90.6806 797.643 82.9299 803.272 76.1298C808.664 69.6465 815.373 64.3847 822.954 60.6934C830.747 56.9306 839.303 55.0183 847.956 55.1056C857.735 54.9667 867.362 57.5431 875.766 62.5486C883.752 67.2649 890.392 73.9573 895.047 81.9826V2.67465H930.703V155.968C930.461 158.758 931.11 161.553 932.557 163.951C933.367 164.829 934.358 165.521 935.462 165.978C936.565 166.436 937.755 166.648 938.949 166.601V196.952C933.962 198.047 928.883 198.671 923.779 198.815C918.157 199.053 912.622 197.362 908.091 194.025C906.127 192.541 904.497 190.66 903.307 188.505C902.116 186.35 901.392 183.969 901.181 181.516L900.377 172.733C895.526 181.325 888.269 188.308 879.5 192.824C871.005 197.277 861.558 199.604 851.968 199.606M861.277 169.274C864.805 169.25 868.306 168.665 871.65 167.541C875.161 166.406 878.479 164.745 881.491 162.614C884.505 160.493 887.23 157.991 889.6 155.169C891.954 152.408 893.801 149.252 895.057 145.848V112.574C893.642 108.69 891.623 105.054 889.075 101.8C886.553 98.5724 883.599 95.7072 880.297 93.2847C877.098 90.9405 873.612 89.0167 869.924 87.5603C866.495 86.1877 862.841 85.4679 859.148 85.4381C854.02 85.3952 848.956 86.5837 844.382 88.9037C839.893 91.1836 835.948 94.4051 832.815 98.3486C829.563 102.453 827.044 107.088 825.368 112.05C823.597 117.189 822.699 122.589 822.709 128.025C822.653 133.572 823.646 139.08 825.635 144.258C827.481 149.056 830.185 153.477 833.614 157.305C836.994 161.04 841.118 164.026 845.721 166.071C850.615 168.248 855.922 169.342 861.277 169.274Z" fill="#07122F" fill-opacity="0.5"/>
<path d="M1171.66 199.607C1161.17 199.772 1150.76 197.781 1141.07 193.758C1132.4 190.11 1124.57 184.722 1118.06 177.926C1111.77 171.272 1106.85 163.45 1103.57 154.902C1100.19 146.16 1098.48 136.863 1098.52 127.491C1098.46 118.027 1100.18 108.636 1103.57 99.8024C1106.85 91.256 1111.77 83.4359 1118.06 76.7845C1124.57 69.9868 1132.4 64.5982 1141.07 60.9527C1150.76 56.9239 1161.17 54.931 1171.66 55.0978C1182.11 54.922 1192.48 56.9156 1202.12 60.9527C1210.74 64.6257 1218.52 70.0119 1225 76.7845C1231.29 83.4358 1236.21 91.2559 1239.49 99.8024C1242.88 108.636 1244.6 118.025 1244.54 127.487C1244.58 136.859 1242.87 146.155 1239.49 154.898C1236.23 163.424 1231.35 171.241 1225.13 177.922C1218.68 184.733 1210.89 190.125 1202.25 193.754C1192.56 197.778 1182.15 199.769 1171.66 199.602M1135.22 127.493C1135.15 133.247 1136.09 138.97 1138.01 144.395C1139.75 149.223 1142.37 153.686 1145.73 157.558C1148.93 161.232 1152.87 164.182 1157.3 166.21C1161.82 168.23 1166.71 169.275 1171.66 169.275C1176.61 169.275 1181.51 168.23 1186.03 166.21C1190.45 164.179 1194.4 161.23 1197.6 157.558C1200.99 153.652 1203.6 149.139 1205.31 144.258C1207.23 138.789 1208.18 133.024 1208.11 127.226C1208.17 121.516 1207.22 115.841 1205.31 110.46C1203.6 105.578 1200.99 101.062 1197.6 97.1523C1194.4 93.485 1190.46 90.5367 1186.03 88.5004C1181.52 86.4448 1176.62 85.401 1171.67 85.4425C1166.7 85.404 1161.79 86.4964 1157.3 88.637C1152.89 90.7481 1148.96 93.7363 1145.74 97.4193C1142.35 101.329 1139.73 105.844 1138.02 110.725C1136.12 116.109 1135.18 121.783 1135.23 127.491" fill="#07122F" fill-opacity="0.5"/>
<path d="M1311.04 199.607C1296.68 199.607 1285.77 194.996 1278.32 185.775C1270.87 176.553 1267.14 162.895 1267.15 144.799V57.4993H1302.79V137.066C1302.79 158.54 1310.5 169.276 1325.94 169.276C1333.1 169.198 1340.08 167.022 1346.02 163.018C1352.97 158.282 1358.45 151.691 1361.84 143.993V57.4993H1397.48V155.964C1397.23 158.775 1397.93 161.589 1399.48 163.947C1400.32 164.822 1401.33 165.511 1402.46 165.969C1403.58 166.428 1404.79 166.645 1406 166.608V196.946C1403.06 197.566 1400.08 198.012 1397.09 198.284C1394.7 198.455 1392.52 198.551 1390.57 198.551C1385.04 198.8 1379.59 197.258 1375.01 194.155C1373.05 192.742 1371.42 190.934 1370.2 188.85C1368.99 186.765 1368.22 184.449 1367.96 182.05L1367.16 170.866C1361.31 180.117 1353.03 187.576 1343.22 192.423C1333.19 197.275 1322.18 199.733 1311.04 199.607Z" fill="#07122F" fill-opacity="0.5"/>
<path d="M1001.16 211.583C999.917 214.819 998.31 217.901 996.367 220.769C994.772 222.987 992.125 221.746 990.181 222.633C988.174 223.531 985.997 223.985 983.798 223.964C981.391 223.921 978.99 223.7 976.616 223.301C973.65 222.824 970.718 222.156 967.838 221.301V223.493C988.399 224.782 1008.88 227.16 1029.19 230.618C1030.76 227.854 1033.06 227.764 1034.14 224.626L1092.65 57.5014H1059.15L1025.64 166.078L987.873 57.4993H951.159L1006.22 196.94C1004.44 202.802 1002.76 207.681 1001.17 211.577" fill="#07122F" fill-opacity="0.5"/>
</svg>
