<svg width="211" height="47" viewBox="0 0 211 47" fill="none" xmlns="http://www.w3.org/2000/svg">
<mask id="mask0_2015_3096" style="mask-type:luminance" maskUnits="userSpaceOnUse" x="0" y="0" width="211" height="47">
<path d="M211 0H0V47H211V0Z" fill="white"/>
</mask>
<g mask="url(#mask0_2015_3096)">
<path d="M2.62943 13.1925H0V9.30343H2.62943V8.08351C2.62478 7.01715 2.81174 5.95865 3.18141 4.95849C3.53036 3.99828 4.07577 3.12152 4.78276 2.38429C5.5089 1.64117 6.37673 1.05144 7.33484 0.650048C8.41566 0.202893 9.57653 -0.0181565 10.746 0.000511273C12.1056 -0.0151494 13.456 0.224285 14.7275 0.706415C15.9254 1.17181 17.0691 1.76614 18.1386 2.47891L16.1189 6.29144C15.4312 5.69071 14.6448 5.21347 13.7946 4.8808C12.9351 4.53123 12.0167 4.34999 11.0889 4.34692C9.94568 4.34692 9.10082 4.70274 8.55439 5.41439C8.00888 6.12396 7.72012 6.99771 7.73532 7.89279V9.30343H18.4433V28.2133H13.3372V13.1925H7.73532V28.2133H2.62943V13.1925Z" fill="white"/>
<path d="M41.6122 28.2145H36.506V17.0054C36.506 15.4041 36.2266 14.2349 35.6677 13.4977C35.3996 13.138 35.0476 12.8492 34.6425 12.6565C34.2375 12.4638 33.7914 12.373 33.3433 12.392C32.8083 12.3972 32.2788 12.5005 31.7811 12.6969C31.239 12.9058 30.7314 13.1952 30.2754 13.5553C29.7941 13.9353 29.365 14.3772 28.9993 14.8695C28.6205 15.3733 28.3365 15.9417 28.1609 16.5471V28.2145H23.0559V8.23603H27.6679V11.9344C28.418 10.6494 29.5306 9.61482 30.8662 8.96034C32.3337 8.23246 33.9539 7.86644 35.5915 7.89287C36.6504 7.84921 37.702 8.08596 38.6401 8.5792C39.3962 9.00588 40.0269 9.62388 40.4691 10.3713C40.9152 11.15 41.2187 12.0022 41.3653 12.8876C41.5301 13.8319 41.6128 14.7886 41.6125 15.7472L41.6122 28.2145Z" fill="white"/>
<path d="M55.3306 28.596C53.8423 28.6176 52.3649 28.339 50.9866 27.7768C49.7557 27.2747 48.6396 26.5275 47.7063 25.5805C46.7729 24.6335 46.0418 23.5065 45.5573 22.268C45.0618 21.0183 44.8098 19.6854 44.8147 18.341C44.8057 16.9668 45.0512 15.6029 45.5386 14.3182C46.0069 13.0826 46.7198 11.9543 47.6344 11.001C48.5805 10.0266 49.7147 9.25489 50.9682 8.73284C52.3632 8.15648 53.861 7.87077 55.37 7.89317C56.8667 7.86814 58.3522 8.15406 59.7328 8.73284C60.9643 9.25635 62.0789 10.021 63.0108 10.9817C63.9125 11.9227 64.6124 13.0382 65.0675 14.2597C65.5375 15.5026 65.7766 16.8209 65.773 18.1497C65.773 18.4807 65.7665 18.798 65.7535 19.1018C65.7472 19.3588 65.7154 19.6145 65.6586 19.8652H50.2239C50.2834 20.5932 50.4772 21.3039 50.7954 21.9613C51.0866 22.5531 51.4877 23.0841 51.9773 23.5259C52.4565 23.956 53.0125 24.292 53.616 24.5162C54.225 24.7456 54.8706 24.8622 55.5212 24.8603C56.5282 24.8625 57.5189 24.6063 58.3988 24.1164C59.2265 23.6998 59.881 23.0047 60.2474 22.1532L64.6285 23.3731C63.8491 24.9454 62.6226 26.2522 61.1032 27.1293C59.49 28.1079 57.5658 28.597 55.3306 28.5966M60.513 16.5486C60.446 15.1785 59.8523 13.8874 58.8559 12.9452C57.8918 12.0569 56.6281 11.5654 55.3175 11.569C54.0068 11.5726 52.7459 12.0711 51.7867 12.9648C51.3183 13.4117 50.9369 13.9417 50.6617 14.5279C50.3626 15.1623 50.1878 15.8483 50.1468 16.5486H60.513Z" fill="white"/>
<path d="M74.3454 28.5957C73.4218 28.6034 72.5046 28.4421 71.639 28.1196C70.834 27.8227 70.0958 27.3691 69.4669 26.7852C68.8621 26.2198 68.3759 25.5395 68.0366 24.784C67.6882 23.9914 67.5129 23.1335 67.5226 22.2677C67.5152 21.3585 67.7313 20.4614 68.1519 19.6555C68.5737 18.8513 69.1732 18.1538 69.9048 17.6161C70.7175 17.025 71.6266 16.5797 72.5917 16.3C73.7047 15.9723 74.8602 15.8118 76.0204 15.824C76.8953 15.8229 77.7687 15.8991 78.6302 16.0518C79.4081 16.1836 80.169 16.401 80.8992 16.6999V15.5562C80.8992 14.2355 80.5243 13.2187 79.7745 12.5059C79.0247 11.7931 77.9133 11.4373 76.4404 11.4385C75.3734 11.4392 74.3152 11.6329 73.3171 12.0103C72.2114 12.4398 71.1625 13.0032 70.1938 13.6879L68.6286 10.4484C71.0782 8.78092 73.973 7.89067 76.9358 7.89375C79.8065 7.89375 82.0359 8.59926 83.624 10.0103C85.2122 11.4213 86.0059 13.4607 86.0053 16.1283V22.3439C85.9695 22.7465 86.0704 23.1494 86.2917 23.4876C86.4123 23.6125 86.5578 23.7108 86.7186 23.7762C86.8795 23.8416 87.0522 23.8726 87.2258 23.8673V28.2154C86.4872 28.3785 85.7343 28.4679 84.9782 28.4824C84.0127 28.4824 83.2699 28.2663 82.7495 27.8343C82.2272 27.4 81.8814 26.7899 81.7772 26.1184L81.6628 25.0118C80.8129 26.1495 79.7015 27.0653 78.4227 27.6818C77.1508 28.2919 75.7568 28.6045 74.3463 28.596M75.7933 24.8606C76.6344 24.865 77.4686 24.7094 78.2516 24.402C78.9469 24.1523 79.569 23.733 80.0614 23.1821C80.6192 22.751 80.9006 22.268 80.9006 21.7344V19.4464C80.2561 19.2077 79.593 19.0226 78.918 18.8929C78.2404 18.7572 77.5512 18.6872 76.8602 18.6838C75.5392 18.6838 74.4592 18.9823 73.6201 19.5793C73.2363 19.8207 72.9197 20.1554 72.6999 20.5521C72.48 20.9488 72.364 21.3947 72.3626 21.8483C72.3552 22.2587 72.4404 22.6655 72.6119 23.0384C72.7835 23.4112 73.0369 23.7406 73.3533 24.0019C74.0318 24.5806 74.9009 24.8865 75.7921 24.8603" fill="white"/>
<path d="M109.327 28.2146H104.219V17.0054C104.219 15.4041 103.94 14.2349 103.382 13.4978C103.113 13.138 102.761 12.8492 102.356 12.6565C101.951 12.4638 101.505 12.373 101.057 12.3921C100.522 12.3972 99.9918 12.5005 99.4937 12.697C98.9518 12.9056 98.4445 13.195 97.989 13.5553C97.5074 13.9351 97.0783 14.377 96.7128 14.8696C96.3338 15.3733 96.0494 15.9417 95.8736 16.5472V28.2146H90.77V8.23607H95.382V11.9344C96.1324 10.6495 97.2454 9.61485 98.5812 8.96037C100.049 8.23249 101.669 7.86648 103.306 7.8929C104.365 7.84937 105.417 8.08611 106.355 8.57924C107.111 9.00591 107.742 9.62391 108.184 10.3713C108.63 11.1499 108.933 12.0021 109.079 12.8877C109.245 13.8318 109.328 14.7886 109.327 15.7472V28.2146Z" fill="white"/>
<path d="M122.053 28.5957C120.767 28.61 119.493 28.3487 118.316 27.8291C117.14 27.3096 116.088 26.5439 115.232 25.5837C114.378 24.6169 113.712 23.4984 113.27 22.2861C112.792 20.9865 112.553 19.6112 112.564 18.2265C112.552 16.851 112.777 15.4836 113.231 14.185C113.647 12.9907 114.273 11.8803 115.079 10.9061C115.852 9.97724 116.813 9.22341 117.899 8.6946C119.016 8.15551 120.241 7.88156 121.481 7.89407C122.882 7.87416 124.261 8.24326 125.465 8.96037C126.609 9.63604 127.561 10.5948 128.227 11.7446V0.382629H133.336V22.3439C133.301 22.7437 133.394 23.1441 133.601 23.4876C133.717 23.6134 133.859 23.7125 134.017 23.7781C134.176 23.8436 134.346 23.8741 134.517 23.8673V28.2155C133.802 28.3723 133.075 28.4617 132.344 28.4824C131.538 28.5164 130.745 28.2743 130.096 27.7961C129.815 27.5835 129.581 27.3141 129.411 27.0053C129.24 26.6966 129.137 26.3554 129.106 26.004L128.991 24.7458C128.296 25.9766 127.256 26.9771 126 27.624C124.783 28.262 123.43 28.5954 122.056 28.5957M123.389 24.2502C123.895 24.2468 124.396 24.163 124.876 24.0019C125.378 23.8393 125.854 23.6013 126.285 23.296C126.717 22.9923 127.108 22.6337 127.447 22.2294C127.784 21.8339 128.049 21.3819 128.229 20.8941V16.1272C128.026 15.5708 127.737 15.0498 127.372 14.5837C127.011 14.1213 126.587 13.7108 126.114 13.3637C125.656 13.0279 125.157 12.7523 124.628 12.5436C124.137 12.347 123.613 12.2439 123.084 12.2396C122.35 12.2335 121.624 12.4037 120.969 12.7361C120.326 13.0627 119.761 13.5242 119.312 14.0892C118.846 14.6772 118.485 15.3413 118.245 16.0521C117.991 16.7884 117.863 17.5619 117.864 18.3407C117.856 19.1354 117.998 19.9245 118.283 20.6663C118.548 21.3537 118.935 21.9871 119.426 22.5355C119.911 23.0706 120.501 23.4984 121.161 23.7914C121.862 24.1032 122.622 24.2599 123.389 24.2502Z" fill="white"/>
<path d="M167.856 28.5957C166.354 28.6194 164.862 28.3342 163.474 27.7578C162.232 27.2352 161.11 26.4632 160.177 25.4897C159.277 24.5364 158.571 23.4158 158.101 22.1912C157.617 20.9388 157.372 19.6069 157.377 18.2642C157.369 16.9083 157.615 15.563 158.101 14.2974C158.571 13.073 159.277 11.9527 160.177 10.9998C161.11 10.0259 162.232 9.25394 163.474 8.73168C164.862 8.1545 166.354 7.86899 167.856 7.89289C169.353 7.86771 170.839 8.15331 172.22 8.73168C173.455 9.25789 174.57 10.0295 175.497 10.9998C176.398 11.9527 177.104 13.073 177.574 14.2974C178.059 15.5629 178.305 16.908 178.298 18.2636C178.303 19.6062 178.057 20.938 177.574 22.1906C177.106 23.4121 176.407 24.532 175.516 25.4891C174.593 26.4648 173.477 27.2373 172.239 27.7572C170.851 28.3337 169.359 28.6189 167.856 28.5951M162.636 18.2644C162.625 19.0889 162.761 19.9086 163.035 20.6859C163.284 21.3776 163.659 22.017 164.141 22.5717C164.599 23.0981 165.164 23.5207 165.799 23.8112C166.446 24.1006 167.147 24.2502 167.856 24.2502C168.566 24.2502 169.267 24.1006 169.914 23.8112C170.548 23.5202 171.114 23.0977 171.572 22.5717C172.057 22.012 172.432 21.3655 172.677 20.6663C172.952 19.8827 173.088 19.0568 173.078 18.2262C173.086 17.4082 172.95 16.5952 172.677 15.8243C172.432 15.1248 172.058 14.4779 171.573 13.9178C171.114 13.3924 170.549 12.97 169.915 12.6783C169.269 12.3838 168.567 12.2342 167.857 12.2402C167.145 12.2347 166.442 12.3911 165.799 12.6978C165.167 13.0003 164.604 13.4284 164.142 13.956C163.657 14.5162 163.282 15.1629 163.036 15.8623C162.764 16.6335 162.629 17.4464 162.637 18.2642" fill="white"/>
<path d="M187.824 28.5957C185.767 28.5957 184.204 27.9352 183.136 26.6141C182.068 25.293 181.535 23.3362 181.536 20.7437V8.23694H186.642V19.636C186.642 22.7123 187.747 24.2505 189.958 24.2505C190.984 24.2393 191.984 23.9276 192.835 23.3539C193.83 22.6754 194.616 21.7311 195.102 20.6284V8.23694H200.208V22.3433C200.171 22.746 200.272 23.1491 200.494 23.487C200.615 23.6124 200.76 23.7111 200.921 23.7767C201.082 23.8424 201.255 23.8735 201.428 23.8682V28.2146C201.007 28.3033 200.58 28.3673 200.151 28.4062C199.809 28.4307 199.498 28.4444 199.217 28.4444C198.426 28.4801 197.644 28.2593 196.989 27.8147C196.708 27.6122 196.474 27.3533 196.3 27.0546C196.126 26.7559 196.016 26.4241 195.978 26.0805L195.864 24.4783C195.026 25.8036 193.84 26.8721 192.434 27.5665C190.998 28.2617 189.42 28.6138 187.824 28.5957Z" fill="white"/>
<path d="M143.429 30.3116C143.251 30.7751 143.021 31.2167 142.743 31.6276C142.514 31.9453 142.135 31.7675 141.857 31.8945C141.569 32.0232 141.257 32.0882 140.942 32.0852C140.597 32.0791 140.253 32.0474 139.913 31.9903C139.488 31.9219 139.068 31.8262 138.656 31.7038V32.0178C141.601 32.2024 144.535 32.5431 147.445 33.0385C147.67 32.6425 147.999 32.6296 148.154 32.1801L156.537 8.23723H151.738L146.936 23.7922L141.526 8.23694H136.266L144.154 28.2137C143.9 29.0535 143.659 29.7525 143.43 30.3107" fill="white"/>
<path d="M205.446 23.8699C198.035 33.1699 188.595 40.3233 176.652 42.4419C176.966 40.9816 175.592 38.639 172.624 37.8069C162.83 34.4047 139.679 26.9581 121.443 32.6489C121.68 33.0615 121.945 33.4465 122.195 33.8463C140.223 28.9608 162.817 36.9223 172.368 40.2392C172.817 40.3956 173.206 40.6884 173.481 41.0767C173.756 41.465 173.903 41.9294 173.901 42.4053C173.9 42.8811 173.75 43.3446 173.473 43.7312C173.195 44.1177 172.804 44.408 172.354 44.5616C170.293 45.2812 162.762 44.8323 158.489 44.6857C158.326 44.6781 158.166 44.7327 158.041 44.8385C157.917 44.9443 157.837 45.0934 157.818 45.2557C157.799 45.418 157.843 45.5814 157.94 45.713C158.037 45.8445 158.18 45.9343 158.34 45.9644C178.886 50.1446 193.784 41.1898 204.469 27.7805C208.853 22.2647 209.29 24.6161 208.313 27.5235C206.139 33.153 202.935 38.328 198.866 42.7839C204.159 38.3686 208.248 32.683 210.749 26.258C211.726 23.3506 209.829 18.3544 205.446 23.8699Z" fill="#00DF70"/>
</g>
</svg>
