<svg width="251" height="197" viewBox="0 0 251 197" fill="none" xmlns="http://www.w3.org/2000/svg">
<path d="M156.118 35.8C153.271 35.8 150.833 34.7817 148.806 32.745C146.778 30.7083 145.765 28.26 145.765 25.4C145.765 22.54 146.778 20.0917 148.806 18.055C150.833 16.0183 153.271 15 156.118 15C158.965 15 161.402 16.0183 163.429 18.055C165.457 20.0917 166.471 22.54 166.471 25.4C166.471 28.26 165.457 30.7083 163.429 32.745C161.402 34.7817 158.965 35.8 156.118 35.8ZM210.471 61.8C208.314 61.8 206.48 61.0417 204.971 59.525C203.461 58.0083 202.706 56.1667 202.706 54C202.706 51.8333 203.461 49.9917 204.971 48.475C206.48 46.9583 208.314 46.2 210.471 46.2C212.627 46.2 214.461 46.9583 215.971 48.475C217.48 49.9917 218.235 51.8333 218.235 54C218.235 56.1667 217.48 58.0083 215.971 59.525C214.461 61.0417 212.627 61.8 210.471 61.8ZM145.765 113.8V82.6H143.176C141.71 82.6 140.48 82.1017 139.488 81.105C138.496 80.1083 138 78.8733 138 77.4V51.4C138 48.54 139.014 46.0917 141.041 44.055C143.069 42.0183 145.506 41 148.353 41H163.882C165.78 41 167.506 41.455 169.059 42.365C170.612 43.275 171.863 44.5533 172.812 46.2L191.318 78.31L196.624 70.38C197.314 69.34 198.241 68.5167 199.406 67.91C200.571 67.3033 201.8 67 203.094 67H218.235C220.392 67 222.225 67.7583 223.735 69.275C225.245 70.7917 226 72.6333 226 74.8V87.8C226 89.1867 225.375 90.1617 224.124 90.725C222.873 91.2883 221.773 92.0467 220.824 93V113.8C220.824 115.273 220.327 116.508 219.335 117.505C218.343 118.502 217.114 119 215.647 119H205.294C203.827 119 202.598 118.502 201.606 117.505C200.614 116.508 200.118 115.273 200.118 113.8V82.08L197.529 85.72C197.098 86.4133 196.516 86.9333 195.782 87.28C195.049 87.6267 194.294 87.8 193.518 87.8H187.565C186.616 87.8 185.775 87.5833 185.041 87.15C184.308 86.7167 183.725 86.11 183.294 85.33L171.647 64.92V113.8C171.647 115.273 171.151 116.508 170.159 117.505C169.167 118.502 167.937 119 166.471 119H150.941C149.475 119 148.245 118.502 147.253 117.505C146.261 116.508 145.765 115.273 145.765 113.8Z" fill="#1C1B1F" fill-opacity="0.1"/>
<mask id="mask0_2015_3933" style="mask-type:alpha" maskUnits="userSpaceOnUse" x="0" y="0" width="251" height="197">
<rect x="0.5" y="0.5" width="249.644" height="195.618" rx="17.5" fill="white" stroke="#DEDEDE"/>
</mask>
<g mask="url(#mask0_2015_3933)">
</g>
</svg>
