<svg width="251" height="197" viewBox="0 0 251 197" fill="none" xmlns="http://www.w3.org/2000/svg">
<mask id="mask0_2015_3924" style="mask-type:alpha" maskUnits="userSpaceOnUse" x="0" y="0" width="251" height="197">
<rect x="0.5" y="0.5" width="249.644" height="195.618" rx="17.5" fill="white" stroke="#DEDEDE"/>
</mask>
<g mask="url(#mask0_2015_3924)">
<path d="M186.525 121C176.895 121 168.692 117.612 161.915 110.835C155.138 104.058 151.75 95.855 151.75 86.225V83.1488C144.082 81.9004 137.706 78.3115 132.624 72.3819C127.541 66.4523 125 59.475 125 51.45V24.7C125 23.1842 125.513 21.9135 126.538 20.8881C127.564 19.8627 128.834 19.35 130.35 19.35H141.05C141.05 17.8342 141.563 16.5635 142.588 15.5381C143.614 14.5127 144.884 14 146.4 14C147.916 14 149.186 14.5127 150.212 15.5381C151.237 16.5635 151.75 17.8342 151.75 19.35V30.05C151.75 31.5658 151.237 32.8365 150.212 33.8619C149.186 34.8873 147.916 35.4 146.4 35.4C144.884 35.4 143.614 34.8873 142.588 33.8619C141.563 32.8365 141.05 31.5658 141.05 30.05H135.7V51.45C135.7 57.335 137.795 62.3729 141.986 66.5638C146.177 70.7546 151.215 72.85 157.1 72.85C162.985 72.85 168.023 70.7546 172.214 66.5638C176.405 62.3729 178.5 57.335 178.5 51.45V30.05H173.15C173.15 31.5658 172.637 32.8365 171.612 33.8619C170.586 34.8873 169.316 35.4 167.8 35.4C166.284 35.4 165.014 34.8873 163.988 33.8619C162.963 32.8365 162.45 31.5658 162.45 30.05V19.35C162.45 17.8342 162.963 16.5635 163.988 15.5381C165.014 14.5127 166.284 14 167.8 14C169.316 14 170.586 14.5127 171.612 15.5381C172.637 16.5635 173.15 17.8342 173.15 19.35H183.85C185.366 19.35 186.636 19.8627 187.662 20.8881C188.687 21.9135 189.2 23.1842 189.2 24.7V51.45C189.2 59.475 186.659 66.4523 181.576 72.3819C176.494 78.3115 170.118 81.9004 162.45 83.1488V86.225C162.45 92.9125 164.791 98.5969 169.472 103.278C174.153 107.959 179.838 110.3 186.525 110.3C193.213 110.3 198.897 107.959 203.578 103.278C208.259 98.5969 210.6 92.9125 210.6 86.225V77.2638C207.479 76.1046 204.916 74.1652 202.909 71.4456C200.903 68.726 199.9 65.6275 199.9 62.15C199.9 57.6917 201.46 53.9021 204.581 50.7813C207.702 47.6604 211.492 46.1 215.95 46.1C220.408 46.1 224.198 47.6604 227.319 50.7813C230.44 53.9021 232 57.6917 232 62.15C232 65.6275 230.997 68.726 228.991 71.4456C226.984 74.1652 224.421 76.1046 221.3 77.2638V86.225C221.3 95.855 217.912 104.058 211.135 110.835C204.358 117.612 196.155 121 186.525 121ZM215.95 67.5C217.466 67.5 218.736 66.9873 219.762 65.9619C220.787 64.9365 221.3 63.6658 221.3 62.15C221.3 60.6342 220.787 59.3635 219.762 58.3381C218.736 57.3127 217.466 56.8 215.95 56.8C214.434 56.8 213.164 57.3127 212.138 58.3381C211.113 59.3635 210.6 60.6342 210.6 62.15C210.6 63.6658 211.113 64.9365 212.138 65.9619C213.164 66.9873 214.434 67.5 215.95 67.5Z" fill="#1C1B1F" fill-opacity="0.1"/>
</g>
</svg>
