<svg width="251" height="197" viewBox="0 0 251 197" fill="none" xmlns="http://www.w3.org/2000/svg">
<mask id="mask0_2015_3945" style="mask-type:alpha" maskUnits="userSpaceOnUse" x="0" y="0" width="251" height="197">
<rect x="0.5" y="0.5" width="249.644" height="195.618" rx="17.5" fill="white" stroke="#DEDEDE"/>
</mask>
<g mask="url(#mask0_2015_3945)">
<path d="M198.635 38.6591C196.066 38.6591 193.866 37.76 192.036 35.9619C190.207 34.1638 189.292 32.0023 189.292 29.4773C189.292 28.8652 189.448 27.947 189.759 26.7227C188.903 26.3402 188.221 25.7854 187.715 25.0585C187.209 24.3316 186.956 23.5091 186.956 22.5909C186.956 21.2902 187.404 20.1998 188.299 19.3199C189.195 18.44 190.304 18 191.628 18C192.562 18 193.399 18.2487 194.139 18.746C194.878 19.2434 195.443 19.9129 195.832 20.7545C196.299 20.6015 196.766 20.4867 197.234 20.4102C197.701 20.3337 198.168 20.2955 198.635 20.2955C201.204 20.2955 203.404 21.1945 205.234 22.9926C207.063 24.7907 207.978 26.9523 207.978 29.4773C207.978 32.0023 207.063 34.1638 205.234 35.9619C203.404 37.76 201.204 38.6591 198.635 38.6591ZM217.321 78.8295C216.698 78.8295 216.153 78.6 215.686 78.1409C215.219 77.6818 214.985 77.1462 214.985 76.5341V74.3534C212.027 72.7466 208.99 70.6616 205.876 68.0983C202.762 65.535 200.465 62.7231 198.985 59.6625L196.299 73.0909L205.642 100.522V119H196.299V100.636H186.956L175.745 115.327C174.966 116.398 173.954 117.011 172.708 117.164C171.462 117.317 170.294 117.011 169.204 116.245C168.114 115.48 167.491 114.486 167.336 113.261C167.18 112.037 167.491 110.889 168.27 109.818L175.277 100.636H169.555C168.153 100.636 167.044 100.062 166.226 98.9148C165.409 97.767 165 96.428 165 94.8977C165 92.2197 165.526 88.5661 166.577 83.9369C167.628 79.3078 169.477 73.5883 172.124 66.7784C174.771 59.892 177.905 53.8665 181.526 48.7017C185.146 43.5369 189.058 40.9545 193.263 40.9545C196.144 40.9545 198.148 41.8345 199.277 43.5943C200.406 45.3542 202.022 47.9939 204.124 51.5136C206.616 55.6455 208.873 58.7443 210.898 60.8102C212.922 62.8761 215.102 64.4447 217.438 65.5159C218.294 64.9038 219.034 64.483 219.657 64.2534C220.28 64.0239 221.019 63.9091 221.876 63.9091C223.822 63.9091 225.496 64.5977 226.898 65.975C228.299 67.3523 229 68.9591 229 70.7955V116.705C229 117.317 228.766 117.852 228.299 118.311C227.832 118.77 227.287 119 226.664 119C226.041 119 225.496 118.77 225.029 118.311C224.562 117.852 224.328 117.317 224.328 116.705V70.7955C224.328 70.1833 224.095 69.6477 223.628 69.1886C223.161 68.7295 222.616 68.5 221.993 68.5C221.37 68.5 220.825 68.7295 220.358 69.1886C219.891 69.6477 219.657 70.1833 219.657 70.7955V76.5341C219.657 77.1462 219.423 77.6818 218.956 78.1409C218.489 78.6 217.944 78.8295 217.321 78.8295Z" fill="#1C1B1F" fill-opacity="0.1"/>
</g>
</svg>
