<svg width="251" height="197" viewBox="0 0 251 197" fill="none" xmlns="http://www.w3.org/2000/svg">
<mask id="mask0_2015_3937" style="mask-type:alpha" maskUnits="userSpaceOnUse" x="0" y="0" width="251" height="197">
<rect x="0.5" y="0.5" width="249.644" height="195.618" rx="17.5" fill="white" stroke="#DEDEDE"/>
</mask>
<g mask="url(#mask0_2015_3937)">
<path d="M183.972 76.6C185.388 76.6 186.575 76.116 187.532 75.1481C188.49 74.1802 188.969 72.9808 188.969 71.55V46.3C188.969 44.8692 188.49 43.6698 187.532 42.7019C186.575 41.734 185.388 41.25 183.972 41.25C182.556 41.25 181.37 41.734 180.412 42.7019C179.454 43.6698 178.975 44.8692 178.975 46.3V71.55C178.975 72.9808 179.454 74.1802 180.412 75.1481C181.37 76.116 182.556 76.6 183.972 76.6ZM198.963 69.025C200.379 69.025 201.565 68.541 202.523 67.5731C203.481 66.6052 203.96 65.4058 203.96 63.975V51.35C203.96 49.9192 203.481 48.7198 202.523 47.7519C201.565 46.784 200.379 46.3 198.963 46.3C197.547 46.3 196.36 46.784 195.403 47.7519C194.445 48.7198 193.966 49.9192 193.966 51.35V63.975C193.966 65.4058 194.445 66.6052 195.403 67.5731C196.36 68.541 197.547 69.025 198.963 69.025ZM168.981 66.5C170.397 66.5 171.584 66.016 172.542 65.0481C173.499 64.0802 173.978 62.8808 173.978 61.45V51.35C173.978 49.9192 173.499 48.7198 172.542 47.7519C171.584 46.784 170.397 46.3 168.981 46.3C167.566 46.3 166.379 46.784 165.421 47.7519C164.463 48.7198 163.985 49.9192 163.985 51.35V61.45C163.985 62.8808 164.463 64.0802 165.421 65.0481C166.379 66.016 167.566 66.5 168.981 66.5ZM153.991 95.285C149.244 90.9083 145.558 85.7952 142.935 79.9456C140.312 74.096 139 67.9308 139 61.45C139 48.825 143.372 38.0938 152.117 29.2563C160.861 20.4188 171.48 16 183.972 16C194.382 16 203.606 19.0931 211.643 25.2794C219.679 31.4656 224.905 39.5246 227.32 49.4563L233.816 75.3375C234.233 76.9367 233.941 78.3885 232.942 79.6931C231.942 80.9977 230.61 81.65 228.944 81.65H218.95V96.8C218.95 99.5775 217.972 101.955 216.015 103.933C214.058 105.911 211.705 106.9 208.957 106.9H198.963V111.95C198.963 113.381 198.484 114.58 197.526 115.548C196.569 116.516 195.382 117 193.966 117C192.55 117 191.363 116.516 190.406 115.548C189.448 114.58 188.969 113.381 188.969 111.95V101.85C188.969 100.419 189.448 99.2198 190.406 98.2519C191.363 97.284 192.55 96.8 193.966 96.8H208.957V76.6C208.957 75.1692 209.436 73.9698 210.393 73.0019C211.351 72.034 212.538 71.55 213.954 71.55H222.448L217.701 51.9813C215.786 44.3221 211.705 38.0938 205.459 33.2963C199.213 28.4988 192.05 26.1 183.972 26.1C174.311 26.1 166.067 29.5088 159.237 36.3263C152.408 43.1438 148.994 51.4342 148.994 61.1975C148.994 66.2475 150.014 71.045 152.054 75.59C154.095 80.135 156.989 84.175 160.737 87.71L163.985 90.74V111.95C163.985 113.381 163.506 114.58 162.548 115.548C161.59 116.516 160.403 117 158.988 117C157.572 117 156.385 116.516 155.427 115.548C154.47 114.58 153.991 113.381 153.991 111.95V95.285Z" fill="#1C1B1F" fill-opacity="0.1"/>
</g>
</svg>
