<svg width="172" height="39" viewBox="0 0 172 39" fill="none" xmlns="http://www.w3.org/2000/svg">
<mask id="mask0_2015_2185" style="mask-type:luminance" maskUnits="userSpaceOnUse" x="0" y="0" width="172" height="39">
<path d="M171.611 0.000976562H0V38.206H171.611V0.000976562Z" fill="white"/>
</mask>
<g mask="url(#mask0_2015_2185)">
<path d="M2.138 10.7239H0V7.56292H2.138V6.57092C2.13415 5.70385 2.28624 4.84316 2.587 4.02992C2.87016 3.24978 3.31292 2.53727 3.887 1.93792C4.47855 1.33339 5.18554 0.853902 5.966 0.527918C6.84503 0.164833 7.78906 -0.014513 8.74 0.000917503C9.84571 -0.0117197 10.944 0.182974 11.978 0.574917C12.9522 0.953304 13.8823 1.43648 14.752 2.01592L13.109 5.11592C12.5495 4.62743 11.9097 4.23938 11.218 3.96892C10.5192 3.68494 9.77233 3.53761 9.018 3.53492C8.63028 3.50425 8.24086 3.56687 7.88229 3.71753C7.52373 3.8682 7.20645 4.10252 6.957 4.40092C6.51333 4.97784 6.27853 5.68823 6.291 6.41592V7.56292H15V22.9359H10.847V10.7239H6.292V22.9359H2.138V10.7239Z" fill="white"/>
<path d="M33.844 22.9359H29.691V13.8239C29.7697 12.8255 29.531 11.8277 29.009 10.9729C28.791 10.6802 28.5047 10.4452 28.1752 10.2883C27.8456 10.1315 27.4827 10.0575 27.118 10.0729C26.6827 10.0771 26.2519 10.1612 25.847 10.3209C25.4058 10.4914 24.9928 10.7274 24.622 11.0209C24.2305 11.33 23.8815 11.6895 23.584 12.0899C23.2759 12.4995 23.0448 12.9617 22.902 13.4539V22.9379H18.751V6.69594H22.502V9.70194C23.1118 8.65784 24.0163 7.81703 25.102 7.28494C26.2954 6.69317 27.6131 6.39555 28.945 6.41694C29.806 6.38172 30.6611 6.57419 31.424 6.97494C32.0391 7.32181 32.5523 7.82426 32.912 8.43194C33.2749 9.06508 33.5218 9.75796 33.641 10.4779C33.7747 11.2454 33.8416 12.0229 33.841 12.8019L33.844 22.9359Z" fill="white"/>
<path d="M45.001 23.244C43.7905 23.2615 42.589 23.035 41.468 22.578C40.4666 22.17 39.5586 21.5627 38.7993 20.7929C38.04 20.0231 37.4452 19.1069 37.051 18.1C36.6494 17.0839 36.4458 16.0005 36.451 14.908C36.4438 13.7909 36.6435 12.6823 37.04 11.638C37.4191 10.6327 37.9974 9.71435 38.74 8.93796C39.5093 8.14585 40.4316 7.51846 41.451 7.09396C42.5855 6.62531 43.8036 6.39291 45.031 6.41096C46.2499 6.39212 47.4595 6.62674 48.583 7.09996C49.5847 7.52581 50.4911 8.14767 51.249 8.92896C51.9825 9.69395 52.5518 10.6009 52.922 11.594C53.3043 12.6042 53.4989 13.6758 53.496 14.756C53.496 15.0226 53.4907 15.2806 53.48 15.53C53.475 15.739 53.4492 15.947 53.403 16.151H40.848C40.897 16.7414 41.0546 17.3178 41.313 17.851C41.5498 18.3317 41.876 18.7631 42.274 19.122C42.6638 19.4717 43.116 19.7448 43.607 19.927C44.1024 20.1136 44.6276 20.2085 45.157 20.207C45.9754 20.2101 46.781 20.0035 47.497 19.607C48.1699 19.267 48.7011 18.7003 48.997 18.007L52.56 18.999C51.9261 20.2769 50.9286 21.3391 49.693 22.052C48.2695 22.8759 46.6452 23.2885 45.001 23.244ZM49.216 13.451C49.1614 12.3373 48.6784 11.2878 47.868 10.522C47.0838 9.79973 46.0559 9.40014 44.9899 9.40311C43.9238 9.40607 42.8981 9.81138 42.118 10.538C41.7374 10.9015 41.4274 11.3324 41.204 11.809C40.9606 12.3248 40.8184 12.8826 40.785 13.452L49.216 13.451Z" fill="white"/>
<path d="M60.466 23.2439C59.7152 23.25 58.9696 23.1188 58.266 22.8569C57.6111 22.6155 57.0106 22.2467 56.499 21.7719C56.007 21.3119 55.6117 20.7584 55.336 20.1439C55.0525 19.4995 54.91 18.8019 54.918 18.0979C54.9121 17.359 55.0879 16.6299 55.43 15.9749C55.7731 15.321 56.2608 14.754 56.856 14.3169C57.5168 13.8364 58.2562 13.4743 59.041 13.2469C59.9463 12.9804 60.8863 12.85 61.83 12.8599C62.5417 12.8589 63.2522 12.9208 63.953 13.0449C64.5855 13.1521 65.2043 13.3289 65.798 13.5719V12.6439C65.8271 12.1897 65.7607 11.7344 65.6031 11.3075C65.4455 10.8805 65.2002 10.4913 64.883 10.1649C64.1254 9.53555 63.1533 9.22442 62.171 9.29689C61.3029 9.29744 60.442 9.45498 59.63 9.76189C58.7305 10.1111 57.8771 10.5692 57.089 11.1259L55.818 8.49189C57.8101 7.13644 60.1645 6.41265 62.574 6.41489C64.5381 6.29191 66.4776 6.90512 68.014 8.13489C68.6812 8.77153 69.2004 9.54686 69.5351 10.4062C69.8698 11.2654 70.0118 12.1877 69.951 13.1079V18.1639C69.9218 18.4913 70.0039 18.8189 70.184 19.0939C70.282 19.1954 70.4001 19.2754 70.5309 19.3286C70.6616 19.3818 70.8019 19.4071 70.943 19.4029V22.9369C70.342 23.0695 69.7293 23.1422 69.114 23.1539C68.4666 23.1959 67.825 23.0094 67.301 22.6269C66.876 22.2739 66.5947 21.7778 66.51 21.2319L66.417 20.3319C65.7261 21.2564 64.8226 22.0007 63.783 22.5019C62.7486 22.9977 61.615 23.2518 60.468 23.2449M61.645 20.2089C62.3293 20.2124 63.008 20.0858 63.645 19.8359C64.2084 19.632 64.7122 19.2911 65.111 18.8439C65.31 18.7159 65.4756 18.5424 65.5944 18.3377C65.7131 18.1331 65.7816 17.9032 65.794 17.6669V15.8069C65.2699 15.6129 64.7308 15.4624 64.182 15.3569C63.6308 15.2465 63.0702 15.1896 62.508 15.1869C61.5753 15.1465 60.6536 15.4012 59.874 15.9149C59.5619 16.1111 59.3044 16.3831 59.1256 16.7055C58.9467 17.0278 58.8523 17.3902 58.851 17.7589C58.8449 18.0926 58.9143 18.4234 59.0538 18.7265C59.1934 19.0297 59.3996 19.2975 59.657 19.5099C60.2086 19.9812 60.9157 20.2307 61.641 20.2099" fill="white"/>
<path d="M88.918 22.9359H84.764V13.8239C84.843 12.8256 84.6047 11.8278 84.083 10.9729C83.865 10.6802 83.5787 10.4452 83.2492 10.2883C82.9196 10.1315 82.5567 10.0575 82.192 10.0729C81.7567 10.0772 81.3259 10.1613 80.921 10.3209C80.48 10.4912 80.0674 10.7272 79.697 11.0209C79.3053 11.3298 78.9562 11.6893 78.659 12.0899C78.3505 12.4994 78.1191 12.9616 77.976 13.4539V22.9379H73.827V6.69594H77.577V9.70194C78.1869 8.65792 79.0913 7.81713 80.177 7.28494C81.3704 6.69317 82.6881 6.39555 84.02 6.41694C84.881 6.38172 85.7361 6.57419 86.499 6.97494C87.1141 7.32181 87.6272 7.82426 87.987 8.43194C88.3499 9.06499 88.5965 9.75793 88.715 10.4779C88.849 11.2453 88.916 12.0229 88.915 12.8019L88.918 22.9359Z" fill="white"/>
<path d="M99.268 23.246C98.2221 23.2577 97.1858 23.0453 96.2288 22.6231C95.2718 22.2008 94.4164 21.5785 93.72 20.798C93.0237 20.0126 92.481 19.1036 92.12 18.118C91.7313 17.0616 91.5368 15.9436 91.546 14.818C91.536 13.7 91.7194 12.5886 92.088 11.533C92.4255 10.5625 92.9335 9.66007 93.588 8.86801C94.216 8.11218 94.9977 7.4986 95.881 7.06801C96.789 6.62975 97.7858 6.40696 98.794 6.41701C99.933 6.40117 101.054 6.70127 102.033 7.28401C102.964 7.83315 103.737 8.61245 104.28 9.54701V0.312012H108.447V18.164C108.419 18.4891 108.494 18.8147 108.663 19.094C108.757 19.1964 108.873 19.277 109.002 19.3304C109.13 19.3837 109.269 19.4085 109.408 19.403V22.937C108.827 23.0645 108.236 23.1371 107.641 23.154C106.986 23.1818 106.34 22.985 105.812 22.596C105.583 22.4232 105.393 22.2041 105.255 21.9531C105.116 21.7021 105.032 21.4247 105.007 21.139L104.913 20.116C104.348 21.1167 103.502 21.9301 102.48 22.456C101.49 22.9746 100.389 23.2457 99.272 23.246M100.357 19.714C100.768 19.7119 101.176 19.6443 101.566 19.514C101.975 19.3818 102.362 19.1883 102.713 18.94C103.064 18.6931 103.382 18.4017 103.658 18.073C103.932 17.7513 104.148 17.3837 104.294 16.987V13.111C104.128 12.6584 103.892 12.2349 103.594 11.856C103.3 11.48 102.956 11.1462 102.571 10.864C102.198 10.5909 101.792 10.3667 101.362 10.197C100.962 10.0372 100.536 9.95339 100.106 9.95001C99.5089 9.94398 98.9191 10.0811 98.386 10.35C97.8628 10.6155 97.403 10.9907 97.038 11.45C96.6586 11.9293 96.3649 12.4706 96.17 13.05C95.9636 13.6484 95.8588 14.2771 95.86 14.91C95.8535 15.5562 95.9691 16.1978 96.201 16.801C96.4162 17.3596 96.7314 17.8743 97.131 18.32C97.5248 18.7554 98.0055 19.1036 98.542 19.342C99.1124 19.5956 99.7308 19.7229 100.355 19.715" fill="white"/>
<path d="M136.521 23.244C135.299 23.2633 134.086 23.0315 132.957 22.563C131.947 22.1381 131.034 21.5105 130.276 20.719C129.543 19.9443 128.969 19.0335 128.587 18.038C128.193 17.02 127.994 15.9374 127.998 14.846C127.992 13.7441 128.192 12.6506 128.587 11.622C128.969 10.6269 129.543 9.71643 130.276 8.94203C131.034 8.15032 131.947 7.52269 132.957 7.09803C134.086 6.62883 135.299 6.39669 136.521 6.41603C137.738 6.39562 138.947 6.62784 140.07 7.09803C141.074 7.5259 141.981 8.15325 142.735 8.94203C143.468 9.71643 144.042 10.6269 144.424 11.622C144.819 12.6507 145.019 13.7441 145.013 14.846C145.017 15.9374 144.817 17.0199 144.424 18.038C144.043 19.0309 143.475 19.9411 142.75 20.719C142 21.5123 141.092 22.1403 140.085 22.563C138.956 23.0316 137.743 23.2634 136.521 23.244ZM132.275 14.844C132.266 15.5141 132.377 16.1803 132.6 16.812C132.803 17.3743 133.108 17.8941 133.5 18.345C133.873 18.7731 134.332 19.1168 134.848 19.353C135.375 19.5884 135.945 19.7101 136.522 19.7101C137.098 19.7101 137.669 19.5884 138.195 19.353C138.711 19.1164 139.171 18.7728 139.544 18.345C139.939 17.8902 140.245 17.3646 140.444 16.796C140.668 16.1589 140.779 15.4874 140.771 14.812C140.777 14.1469 140.667 13.4858 140.444 12.859C140.245 12.2902 139.939 11.7642 139.544 11.309C139.17 10.8817 138.711 10.5382 138.195 10.301C137.67 10.0616 137.098 9.94013 136.521 9.94503C135.942 9.94046 135.37 10.0677 134.847 10.317C134.333 10.5643 133.875 10.9138 133.5 11.344C133.105 11.7995 132.8 12.3253 132.6 12.894C132.379 13.5212 132.269 14.1821 132.275 14.847" fill="white"/>
<path d="M152.762 23.246C152.045 23.2929 151.327 23.1717 150.665 22.892C150.003 22.6123 149.415 22.1819 148.949 21.635C147.986 20.2378 147.528 18.5545 147.649 16.862V6.69702H151.802V15.963C151.802 18.463 152.702 19.7134 154.502 19.714C155.336 19.705 156.15 19.4515 156.842 18.985C157.652 18.4334 158.291 17.6657 158.686 16.769V6.69702H162.839V18.164C162.809 18.4914 162.891 18.8193 163.072 19.094C163.17 19.1959 163.288 19.2761 163.419 19.3295C163.549 19.3829 163.69 19.4083 163.831 19.404V22.937C163.488 23.0093 163.141 23.0614 162.792 23.093C162.514 23.113 162.26 23.124 162.033 23.124C161.389 23.153 160.753 22.9735 160.22 22.612C159.992 22.4474 159.801 22.2369 159.66 21.9941C159.518 21.7512 159.429 21.4814 159.398 21.202L159.305 19.902C158.624 20.9792 157.659 21.8477 156.516 22.412C155.348 22.9771 154.065 23.2636 152.767 23.249" fill="white"/>
<path d="M116.655 24.641C116.511 25.0179 116.323 25.3769 116.097 25.711C115.911 25.969 115.603 25.825 115.376 25.928C115.142 26.0326 114.888 26.0855 114.632 26.083C114.351 26.0781 114.072 26.0524 113.795 26.006C113.449 25.9504 113.108 25.8726 112.772 25.773V26.028C115.168 26.1782 117.554 26.4553 119.92 26.858C120.104 26.536 120.371 26.525 120.497 26.158L127.316 6.69702H123.411L119.506 19.341L115.106 6.69702H110.828L117.243 22.936C117.036 23.6187 116.84 24.1854 116.654 24.636" fill="white"/>
<path d="M167.093 19.4089C161.065 26.9689 153.388 32.7839 143.674 34.5089C143.929 33.3229 142.812 31.4179 140.398 30.7409C132.431 27.9749 113.598 21.9219 98.771 26.5479C98.964 26.8829 99.179 27.1959 99.383 27.5219C114.045 23.5489 132.421 30.0219 140.189 32.7219C140.554 32.8491 140.871 33.0871 141.094 33.4026C141.318 33.7182 141.437 34.0956 141.436 34.4823C141.435 34.869 141.313 35.2457 141.087 35.5598C140.862 35.874 140.544 36.11 140.178 36.2349C138.502 36.8199 132.378 36.4549 128.901 36.3349C128.768 36.3276 128.637 36.3714 128.535 36.4574C128.433 36.5434 128.367 36.665 128.352 36.7975C128.337 36.93 128.372 37.0634 128.452 37.1705C128.531 37.2776 128.649 37.3503 128.78 37.3739C145.491 40.7739 157.607 33.4929 166.298 22.5929C169.863 18.1089 170.219 20.0209 169.424 22.3839C167.654 26.9583 165.049 31.1633 161.74 34.7839C166.045 31.195 169.37 26.5734 171.404 21.3509C172.199 18.9879 170.656 14.9259 167.091 19.4099" fill="#00DF70"/>
</g>
</svg>
