<svg width="458" height="458" viewBox="0 0 458 458" fill="none" xmlns="http://www.w3.org/2000/svg">
<path d="M151.314 69.387C151.314 69.387 81.9087 104.754 47.2931 159.247C12.6774 213.739 15.4163 283.823 57.479 335.833C99.5417 387.844 179.939 381.056 247.256 414.032C314.573 447.008 388.842 440.211 420.673 370.375C452.504 300.54 404.506 274.406 396.262 193.606C388.018 112.805 315.168 -5.49598 151.314 69.387Z" fill="#00DF70"/>
<path opacity="0.7" d="M151.314 69.387C151.314 69.387 81.9087 104.754 47.2931 159.247C12.6774 213.739 15.4163 283.823 57.479 335.833C99.5417 387.844 179.939 381.056 247.256 414.032C314.573 447.008 388.842 440.211 420.673 370.375C452.504 300.54 404.506 274.406 396.262 193.606C388.018 112.805 315.168 -5.49598 151.314 69.387Z" fill="white"/>
<path d="M427.955 250.526H424.154V249.876C424.151 248.101 423.445 246.399 422.19 245.144C420.935 243.888 419.233 243.182 417.458 243.18H414.884C413.107 243.18 411.403 243.885 410.146 245.14C408.889 246.396 408.181 248.099 408.179 249.876V250.526H404.387C403.88 250.525 403.378 250.624 402.909 250.817C402.441 251.01 402.015 251.294 401.657 251.653C401.299 252.011 401.015 252.437 400.821 252.905C400.628 253.374 400.529 253.876 400.53 254.382V271.951C400.53 272.974 400.936 273.955 401.66 274.678C402.383 275.401 403.364 275.808 404.387 275.808H427.955C428.977 275.805 429.957 275.398 430.679 274.675C431.402 273.953 431.809 272.973 431.812 271.951V254.382C431.812 253.36 431.405 252.379 430.682 251.656C429.959 250.932 428.978 250.526 427.955 250.526ZM410.011 249.876C410.013 248.585 410.528 247.348 411.441 246.436C412.355 245.524 413.593 245.012 414.884 245.012H417.458C418.748 245.012 419.985 245.524 420.897 246.436C421.809 247.348 422.322 248.586 422.322 249.876V250.526H410.011V249.876Z" fill="#263238"/>
<path d="M423.192 261.372H418.337V256.526H413.995V261.372H409.141V265.723H413.995V270.568H418.337V265.723H423.192V261.372Z" fill="white"/>
<path d="M420.444 145.827C419.689 145.827 418.941 145.678 418.244 145.389C417.547 145.1 416.913 144.676 416.38 144.142C415.846 143.607 415.423 142.973 415.135 142.275C414.847 141.577 414.699 140.83 414.701 140.075V124.576C414.699 123.821 414.847 123.073 415.135 122.375C415.423 121.677 415.846 121.043 416.38 120.509C416.913 119.975 417.547 119.551 418.244 119.262C418.941 118.972 419.689 118.823 420.444 118.823C421.199 118.823 421.947 118.972 422.644 119.262C423.341 119.551 423.975 119.975 424.508 120.509C425.042 121.043 425.465 121.677 425.753 122.375C426.041 123.073 426.189 123.821 426.187 124.576V140.047C426.192 140.805 426.047 141.555 425.761 142.256C425.474 142.957 425.052 143.595 424.518 144.132C423.984 144.669 423.35 145.096 422.65 145.387C421.951 145.677 421.201 145.827 420.444 145.827Z" fill="white" stroke="#263238" stroke-linecap="round" stroke-linejoin="round"/>
<path d="M420.444 145.827C419.689 145.827 418.941 145.678 418.244 145.389C417.547 145.1 416.913 144.676 416.38 144.142C415.846 143.608 415.423 142.973 415.135 142.275C414.847 141.578 414.699 140.83 414.701 140.075V132.335H426.187V140.075C426.189 140.83 426.041 141.578 425.753 142.275C425.465 142.973 425.042 143.608 424.508 144.142C423.975 144.676 423.341 145.1 422.644 145.389C421.947 145.678 421.199 145.827 420.444 145.827Z" fill="#263238" stroke="#263238" stroke-linecap="round" stroke-linejoin="round"/>
<path d="M391.553 123.001C391.081 122.411 390.73 121.733 390.52 121.007C390.311 120.282 390.247 119.521 390.332 118.771C390.417 118.02 390.65 117.293 391.016 116.633C391.383 115.972 391.877 115.391 392.469 114.921L404.533 105.23C405.728 104.281 407.25 103.844 408.767 104.015C410.283 104.187 411.669 104.953 412.621 106.146C413.57 107.339 414.007 108.86 413.835 110.375C413.664 111.89 412.897 113.275 411.705 114.225L399.632 123.907C399.043 124.379 398.366 124.73 397.64 124.939C396.915 125.149 396.155 125.214 395.405 125.129C394.654 125.045 393.928 124.814 393.267 124.448C392.606 124.083 392.024 123.591 391.553 123.001Z" fill="white" stroke="#263238" stroke-linecap="round" stroke-linejoin="round"/>
<path d="M391.553 123C391.081 122.411 390.73 121.733 390.52 121.007C390.311 120.281 390.247 119.521 390.332 118.77C390.417 118.02 390.65 117.293 391.016 116.633C391.383 115.972 391.877 115.39 392.469 114.921L398.506 110.076L405.696 119.043L399.66 123.88C399.071 124.357 398.394 124.713 397.667 124.928C396.939 125.142 396.177 125.21 395.423 125.128C394.67 125.047 393.94 124.817 393.276 124.451C392.611 124.086 392.026 123.593 391.553 123Z" fill="#263238" stroke="#263238" stroke-linecap="round" stroke-linejoin="round"/>
<path d="M334.111 80.8279C333.395 80.8282 332.697 81.0524 332.114 81.4691L318.768 71.1091C319.422 69.8985 319.729 68.5307 319.655 67.1567C319.58 65.7827 319.128 64.456 318.347 63.3231L326.499 52.899C327.189 53.1651 327.946 53.2033 328.659 53.008C329.372 52.8127 330.004 52.3943 330.462 51.8139C330.921 51.2335 331.181 50.5217 331.205 49.7826C331.23 49.0436 331.017 48.3161 330.598 47.7068C330.179 47.0975 329.576 46.6383 328.877 46.3964C328.179 46.1545 327.421 46.1427 326.715 46.3627C326.009 46.5827 325.392 47.0229 324.954 47.6188C324.516 48.2148 324.281 48.9353 324.282 49.6747C324.278 50.3873 324.499 51.0831 324.914 51.6624L316.982 61.8209C315.918 60.9251 314.626 60.3435 313.25 60.1413C311.874 59.939 310.469 60.1241 309.192 60.6758C307.916 61.2275 306.818 62.124 306.023 63.2647C305.227 64.4054 304.766 65.7451 304.689 67.1337H295.419C295.318 66.3108 294.925 65.5516 294.311 64.9941C293.698 64.4365 292.904 64.1176 292.076 64.0953C291.247 64.073 290.438 64.3488 289.795 64.8725C289.152 65.3963 288.719 66.1332 288.574 66.9495C288.428 67.7657 288.581 68.6069 289.003 69.3203C289.425 70.0337 290.09 70.5719 290.875 70.8371C291.661 71.1023 292.515 71.0768 293.283 70.7653C294.052 70.4538 294.683 69.877 295.062 69.1397H304.863C305.15 70.4716 305.794 71.7 306.727 72.693C307.66 73.6859 308.846 74.4058 310.157 74.7751C311.468 75.1444 312.856 75.1491 314.17 74.7889C315.483 74.4286 316.674 73.7169 317.614 72.7304L330.887 83.0537C330.625 83.7423 330.59 84.4966 330.787 85.2063C330.985 85.9161 331.404 86.5441 331.984 86.9987C332.563 87.4533 333.273 87.7105 334.01 87.7329C334.746 87.7553 335.47 87.5416 336.076 87.1231C336.683 86.7046 337.139 86.1031 337.379 85.4067C337.619 84.7102 337.63 83.9552 337.411 83.252C337.191 82.5488 336.753 81.9343 336.159 81.4981C335.565 81.062 334.848 80.8271 334.111 80.8279Z" fill="#263238"/>
<path d="M63.0025 145.937C61.893 145.935 60.8296 145.493 60.0451 144.708C59.2606 143.924 58.8188 142.86 58.8163 141.751V106.943H67.1886V141.751C67.1886 142.861 66.7475 143.926 65.9625 144.711C65.1774 145.496 64.1127 145.937 63.0025 145.937Z" fill="white" stroke="#263238" stroke-linecap="round" stroke-linejoin="round"/>
<path d="M63.0025 145.937C61.893 145.935 60.8296 145.493 60.0451 144.708C59.2606 143.924 58.8188 142.861 58.8163 141.751V120.344H67.1886V141.751C67.1886 142.861 66.7475 143.926 65.9625 144.711C65.1774 145.496 64.1127 145.937 63.0025 145.937Z" fill="#263238" stroke="#263238" stroke-linecap="round" stroke-linejoin="round"/>
<path d="M68.3886 104.91H57.6255V107.96H68.3886V104.91Z" fill="white" stroke="#263238" stroke-linecap="round" stroke-linejoin="round"/>
<path d="M50.3159 145.937C49.2064 145.935 48.143 145.493 47.3585 144.708C46.574 143.924 46.1322 142.86 46.1298 141.751V106.943H54.502V141.751C54.502 142.861 54.061 143.926 53.2759 144.711C52.4909 145.496 51.4261 145.937 50.3159 145.937Z" fill="white" stroke="#263238" stroke-linecap="round" stroke-linejoin="round"/>
<path d="M50.3159 145.937C49.2064 145.935 48.143 145.493 47.3585 144.708C46.574 143.924 46.1322 142.861 46.1298 141.751V120.344H54.502V141.751C54.502 142.861 54.061 143.926 53.2759 144.711C52.4909 145.496 51.4261 145.937 50.3159 145.937Z" fill="#263238" stroke="#263238" stroke-linecap="round" stroke-linejoin="round"/>
<path d="M55.702 104.91H44.939V107.96H55.702V104.91Z" fill="white" stroke="#263238" stroke-linecap="round" stroke-linejoin="round"/>
<path d="M171.09 70.5962L174.425 62.5903C174.481 62.4613 174.575 62.3523 174.694 62.2772C174.814 62.2021 174.953 62.1644 175.093 62.169C175.235 62.176 175.37 62.2264 175.482 62.3132C175.593 62.4001 175.675 62.5193 175.716 62.6544L179.756 75.9731L182.834 66.1627C182.876 66.0247 182.961 65.9035 183.076 65.8163C183.191 65.7292 183.33 65.6805 183.475 65.6772C183.617 65.6811 183.756 65.7265 183.873 65.8079C183.99 65.8892 184.081 66.003 184.134 66.1352L185.847 71.0633H195.108C197.003 69.0826 198.105 66.4749 198.204 63.7353C198.222 61.1764 197.293 58.7012 195.597 56.7851C193.901 54.8689 191.557 53.647 189.015 53.354C186.472 53.0609 183.912 53.7174 181.824 55.1973C179.736 56.6772 178.269 58.8762 177.704 61.372C177.122 58.8937 175.65 56.7158 173.566 55.2523C171.483 53.7889 168.935 53.1422 166.406 53.4351C163.878 53.728 161.545 54.9402 159.851 56.841C158.158 58.7418 157.222 61.1988 157.222 63.7445C157.324 66.2816 158.276 68.7109 159.924 70.642L171.09 70.5962Z" fill="#263238"/>
<path d="M185.362 72.4372C185.219 72.4378 185.08 72.394 184.964 72.3119C184.847 72.2299 184.759 72.1136 184.711 71.9792L183.521 68.5534L180.397 78.5103C180.353 78.6506 180.265 78.7731 180.146 78.8603C180.028 78.9475 179.885 78.995 179.738 78.9958C179.59 78.9953 179.447 78.9468 179.329 78.8575C179.212 78.7682 179.127 78.6431 179.087 78.5012L174.956 64.8802L172.208 71.5487C172.156 71.6733 172.068 71.7798 171.956 71.8547C171.843 71.9297 171.711 71.9698 171.576 71.9701H161.033C163.295 74.4982 166.117 76.7333 168.223 78.8126C171.411 81.9636 174.535 85.2246 177.786 88.2657C181.954 84.1529 186.15 80.0217 190.281 75.9089C191.426 74.7639 192.671 73.628 193.826 72.4372H185.362Z" fill="#263238"/>
<path d="M30.8404 277.176L35.3319 278.734L40.1919 264.723L35.7004 263.165L30.8404 277.176Z" fill="white" stroke="#263238" stroke-miterlimit="10"/>
<path d="M28.711 279.4L35.643 281.804L36.5586 279.165L29.6266 276.76L28.711 279.4Z" fill="white" stroke="#263238" stroke-miterlimit="10"/>
<path d="M30.7476 266.77L41.8509 270.622L50.6553 245.239L39.5521 241.388L30.7476 266.77Z" fill="white" stroke="#263238" stroke-miterlimit="10"/>
<path d="M36.1465 255.912L44.342 258.755L49.202 244.743L41.0065 241.901L36.1465 255.912Z" fill="#263238" stroke="#263238" stroke-miterlimit="10"/>
<path d="M34.6968 266.069L39.1884 267.626L44.0483 253.615L39.5568 252.057L34.6968 266.069Z" fill="#263238" stroke="#263238" stroke-miterlimit="10"/>
<path d="M29.9637 266.504L42.6507 270.905L43.7524 267.729L31.0654 263.328L29.9637 266.504Z" fill="white" stroke="#263238" stroke-miterlimit="10"/>
<path d="M42.2594 240.858L48.8712 243.152L50.3391 238.92L43.7273 236.627L42.2594 240.858Z" fill="white" stroke="#263238" stroke-miterlimit="10"/>
<path d="M38.4907 241.913L51.1777 246.313L52.2793 243.137L39.5923 238.736L38.4907 241.913Z" fill="white" stroke="#263238" stroke-miterlimit="10"/>
<path d="M47.1007 237.198L52.4135 221.864" stroke="#263238" stroke-miterlimit="10"/>
<path d="M342.492 427.772C368.966 427.772 390.427 422.933 390.427 416.963C390.427 410.994 368.966 406.154 342.492 406.154C316.019 406.154 294.558 410.994 294.558 416.963C294.558 422.933 316.019 427.772 342.492 427.772Z" fill="#263238" stroke="#263238" stroke-linecap="round" stroke-linejoin="round"/>
<path d="M305.532 172.648C305.532 172.648 299.046 176.614 299.12 178.354C299.193 180.095 296.702 211.834 296.418 215.8C296.134 219.767 292.36 227.956 292.067 231.675C291.773 235.394 292.708 239.122 293.798 240.835C294.888 242.548 298.891 248.025 298.891 248.025L309.654 231.4C309.918 227.77 309.973 224.127 309.819 220.49C309.654 212.567 305.532 172.648 305.532 172.648Z" fill="white" stroke="#263238" stroke-linecap="round" stroke-linejoin="round"/>
<path d="M346.944 93.9999C346.944 93.9999 335.494 93.2671 328.972 101.209C322.45 109.151 323.852 121.297 323.806 125.025C323.76 128.753 312.686 139.681 313.913 144.133C315.141 148.584 318.402 149.088 317.357 152.807C316.313 156.526 309.498 158.761 310.487 163.478C311.477 168.196 315.067 174.883 315.067 174.883L381.019 175.332C381.019 175.332 383.373 168.388 380.864 163.176C378.354 157.964 374.791 156.242 375.368 153.76C375.945 151.277 379.132 145.323 377.905 140.862C376.677 136.402 372.409 135.165 371.96 127.223C371.511 119.281 370.339 106.155 364.037 99.7432C357.735 93.3312 346.944 93.9999 346.944 93.9999Z" fill="#263238" stroke="#263238" stroke-linecap="round" stroke-linejoin="round"/>
<path d="M326.664 400.045C324.638 403.947 322.18 407.61 319.336 410.963C315.122 415.681 311.037 418.163 311.174 420.645C311.312 423.128 320.508 423.613 325.372 421.873C330.236 420.132 333.772 416.661 334.752 416.377C335.732 416.093 338.471 416.377 338.535 412.896C338.599 409.415 338.068 399.504 338.068 399.504L326.664 400.045Z" fill="white" stroke="#263238" stroke-linecap="round" stroke-linejoin="round"/>
<path d="M325.354 421.873C330.227 420.133 333.754 416.661 334.734 416.377C335.714 416.093 338.453 416.377 338.517 412.896C338.517 411.064 338.416 407.4 338.288 404.405C337.567 405.757 336.5 406.893 335.197 407.697C333.893 408.502 332.4 408.946 330.868 408.985C330.868 408.985 330.777 407.244 328.12 404.277C326.407 402.335 324.676 403.864 323.669 405.193L322.853 406.42L322.789 406.539C321.732 408.099 320.575 409.589 319.327 411C315.113 415.717 311.028 418.2 311.165 420.682C311.303 423.165 320.49 423.613 325.354 421.873Z" fill="white" stroke="#263238" stroke-linecap="round" stroke-linejoin="round"/>
<path d="M360.602 400.026C363.063 403.943 365.917 407.598 369.12 410.936C373.838 415.644 378.189 418.117 378.28 420.6C378.372 423.082 369.267 423.577 364.211 421.845C359.154 420.114 355.252 416.642 354.254 416.395C353.255 416.148 350.526 416.395 350.095 412.933C349.665 409.47 349.124 399.541 349.124 399.541L360.602 400.026Z" fill="white" stroke="#263238" stroke-linecap="round" stroke-linejoin="round"/>
<path d="M364.247 421.845C359.2 420.114 355.289 416.642 354.29 416.395C353.292 416.148 350.562 416.395 350.132 412.933C349.903 411.101 349.646 407.437 349.454 404.432C350.301 405.775 351.465 406.89 352.843 407.679C354.221 408.468 355.772 408.907 357.359 408.957C357.359 408.957 357.267 407.217 359.585 404.24C361.096 402.307 362.992 403.828 364.165 405.156C364.467 405.559 364.779 405.962 365.081 406.383L365.163 406.502C366.394 408.06 367.709 409.549 369.102 410.963C373.82 415.672 378.171 418.145 378.262 420.627C378.354 423.109 369.304 423.577 364.247 421.845Z" fill="white" stroke="#263238" stroke-linecap="round" stroke-linejoin="round"/>
<path d="M306.741 269.121C306.741 269.121 308.271 320.701 310.304 330.868C312.338 341.036 321.415 399.312 321.415 399.312C324.19 400.486 327.178 401.072 330.191 401.034H340.111L341.027 357.634L341.366 294.641L346.34 401.272C346.34 401.272 360.006 401.758 361.481 401.51C362.956 401.263 364.183 401.016 364.183 401.016L372.968 333.552L377.997 288.668L378.271 270.815C378.271 270.815 336.282 269.359 324.081 268.37C311.88 267.38 306.86 267.133 306.86 267.133L306.741 269.121Z" fill="#00DF70" stroke="#263238" stroke-linecap="round" stroke-linejoin="round"/>
<path d="M363.441 360.189C363.331 361.05 363.221 361.847 363.093 362.58" stroke="#263238" stroke-linecap="round" stroke-linejoin="round"/>
<path d="M364.568 298.094C364.568 298.094 365.42 334.844 363.927 354.794" stroke="#263238" stroke-linecap="round" stroke-linejoin="round"/>
<path d="M319.547 295.144C319.547 295.144 320.6 319.455 321.644 324.905" stroke="#263238" stroke-linecap="round" stroke-linejoin="round"/>
<path d="M358.687 279.655V298.213C361.065 298.853 363.497 299.273 365.951 299.468C369.716 299.715 376.742 299.468 376.742 299.468L377.245 292.442L358.687 279.655Z" fill="#263238" stroke="#263238" stroke-linecap="round" stroke-linejoin="round"/>
<path d="M307.519 293.944C307.519 293.944 317.055 296.958 321.067 297.205C325.079 297.453 328.835 297.957 328.835 297.957L328.34 292.946L307.016 290.94L307.519 293.944Z" fill="#263238" stroke="#263238" stroke-linecap="round" stroke-linejoin="round"/>
<path d="M336.465 153.036L328.981 161.472L308.225 176.614L312.649 268.388C312.649 268.388 329.192 272.84 343.39 274.076C357.588 275.313 375.844 272.061 375.844 272.061L373.16 175.881C373.16 175.881 365.081 163.973 360.941 160.758C356.8 157.543 354.904 154.566 349.417 154.071C343.93 153.577 336.465 153.036 336.465 153.036Z" fill="#00DF70" stroke="#263238" stroke-linecap="round" stroke-linejoin="round"/>
<path d="M327.781 157.552L305.532 172.693L309.022 228.487L307.84 234.093L298.488 244.865L302.472 263.79L300.695 290.491C300.695 290.491 309.535 293.468 315.525 294.201C319.986 294.679 324.468 294.927 328.954 294.943L329.723 258.486C329.723 258.486 332.682 197.966 333.03 195.282C333.378 192.598 336.465 153.146 336.465 153.146L327.781 157.552Z" fill="white" stroke="#263238" stroke-linecap="round" stroke-linejoin="round"/>
<path d="M328.139 159.833L317.367 186.846L328.991 191.673L318.017 193.67L327.736 231.748" stroke="#263238" stroke-linecap="round" stroke-linejoin="round"/>
<path d="M334.596 145.845C334.596 145.845 338.462 171.631 341.503 177.585C344.544 183.539 345.405 185.517 345.405 185.517C345.405 185.517 352.019 165.42 353.347 162.443C354.675 159.466 356.095 148.804 356.095 148.804C356.095 148.804 342.914 153.027 334.596 145.845Z" fill="white" stroke="#263238" stroke-linecap="round" stroke-linejoin="round"/>
<path d="M334.596 145.845C334.596 145.845 334.945 148.19 335.512 151.625C337.445 153.1 342.566 156.746 346.349 156.938C349.234 157.085 352.898 155.216 355.335 153.723C355.774 151.021 356.077 148.804 356.077 148.804C356.077 148.804 342.914 153.027 334.596 145.845Z" fill="#263238" stroke="#263238" stroke-linecap="round" stroke-linejoin="round"/>
<path d="M329.348 128.02C329.348 128.02 326.71 124.265 324.933 128.02C323.156 131.776 327.681 137.336 328.945 138.096C332.535 140.23 331.583 136.264 331.583 136.264L329.348 128.02Z" fill="white" stroke="#263238" stroke-linecap="round" stroke-linejoin="round"/>
<path d="M362.113 129.641C362.113 129.641 364.339 125.758 366.519 129.422C368.699 133.086 364.769 138.847 363.597 139.662C360.244 141.98 360.776 138.005 360.776 138.005L362.113 129.641Z" fill="white" stroke="#263238" stroke-linecap="round" stroke-linejoin="round"/>
<path d="M328.725 124.704C328.725 124.704 338.288 122.469 343.106 119.62C346.057 117.838 348.631 115.495 350.681 112.723C350.681 112.723 354.822 120.546 358.467 123.715C362.113 126.884 362.873 127.067 362.873 127.067C362.873 127.067 361.124 140.762 359.145 145.525C357.167 150.288 350.709 154.923 344.682 153.586C341.256 152.835 335.32 150.361 333.598 146.194C331.876 142.026 328.725 124.704 328.725 124.704Z" fill="white" stroke="#263238" stroke-linecap="round" stroke-linejoin="round"/>
<path d="M353.127 135.229C350.159 135.302 340.221 135.321 335.091 132.225C333.035 131.028 331.11 129.618 329.348 128.02C329.531 128.936 329.751 130.081 329.989 131.272L331.107 132.087L333.909 142.676L332.6 142.96C332.876 144.043 333.209 145.11 333.598 146.157C335.32 150.325 341.256 152.798 344.682 153.549C350.7 154.877 357.139 150.27 359.136 145.516C358.665 144.592 358.526 143.534 358.742 142.52C359.319 139.525 360.034 134.276 360.034 134.276L362.076 132.444C362.186 131.776 362.278 131.135 362.37 130.548C359.896 132.261 355.261 135.174 353.127 135.229Z" fill="#00DF70" stroke="#263238" stroke-linecap="round" stroke-linejoin="round"/>
<path d="M342.218 130.805C342.218 130.805 339.021 126.921 334.825 127.278" stroke="#263238" stroke-linecap="round" stroke-linejoin="round"/>
<path d="M350.452 131.574C351.472 130.502 352.74 129.696 354.143 129.226C355.547 128.757 357.044 128.638 358.504 128.881" stroke="#263238" stroke-linecap="round" stroke-linejoin="round"/>
<path d="M332.984 125.336C332.984 125.336 337.564 123.504 341.622 124.365" stroke="#263238" stroke-linecap="round" stroke-linejoin="round"/>
<path d="M350.828 125.364C352.035 124.747 353.402 124.517 354.744 124.704C356.086 124.89 357.338 125.485 358.33 126.408" stroke="#263238" stroke-linecap="round" stroke-linejoin="round"/>
<path d="M339.14 129.532C339.161 129.672 339.153 129.816 339.118 129.954C339.084 130.092 339.022 130.221 338.937 130.335C338.852 130.449 338.745 130.546 338.622 130.618C338.5 130.691 338.365 130.739 338.224 130.759C337.937 130.727 337.674 130.587 337.487 130.367C337.299 130.148 337.203 129.865 337.216 129.577C337.194 129.436 337.201 129.292 337.235 129.154C337.269 129.016 337.331 128.885 337.416 128.771C337.501 128.657 337.609 128.561 337.732 128.488C337.855 128.416 337.991 128.369 338.132 128.35C338.418 128.384 338.68 128.525 338.867 128.744C339.054 128.963 339.151 129.244 339.14 129.532Z" fill="#263238"/>
<path d="M355.729 130.722C355.753 130.864 355.749 131.008 355.716 131.148C355.682 131.287 355.621 131.418 355.535 131.533C355.449 131.648 355.341 131.745 355.217 131.816C355.093 131.888 354.955 131.933 354.813 131.95C354.527 131.92 354.263 131.782 354.076 131.564C353.889 131.346 353.792 131.064 353.805 130.777C353.78 130.636 353.785 130.491 353.818 130.352C353.851 130.212 353.913 130.081 353.998 129.966C354.084 129.851 354.193 129.755 354.317 129.683C354.441 129.612 354.579 129.566 354.721 129.55C355.007 129.58 355.27 129.718 355.458 129.936C355.645 130.154 355.742 130.435 355.729 130.722Z" fill="#263238"/>
<path d="M380.396 167.39C380.396 167.39 385.737 169.863 387.724 173.802C389.712 177.741 405.605 220.417 405.531 223.641C405.458 226.866 400.2 230.585 395.272 231.088C390.344 231.592 383.163 222.661 382.091 221.177C381.019 219.693 380.827 202.326 380.827 202.326L380.396 167.39Z" fill="white" stroke="#263238" stroke-linecap="round" stroke-linejoin="round"/>
<path d="M355.225 155.995L357.826 241.311L358.742 295.126C363.73 296.352 368.84 297.013 373.975 297.095C378.259 297.185 382.518 296.425 386.506 294.86C386.506 294.86 384.949 261.381 384.674 255.921C384.399 250.462 382.586 240.047 382.586 240.047L380.424 167.39C380.424 167.39 360.299 157.973 355.225 155.995Z" fill="white" stroke="#263238" stroke-linecap="round" stroke-linejoin="round"/>
<path d="M360.941 160.703L370.165 190.794L361.756 193.074L369.936 197.041L359.732 229.458" fill="white"/>
<path d="M360.941 160.703L370.165 190.794L361.756 193.074L369.936 197.041L359.732 229.458" stroke="#263238" stroke-linecap="round" stroke-linejoin="round"/>
<path d="M367.371 188.229L355.93 243.042C355.93 243.042 363.753 245.515 369.469 245.79C375.184 246.065 387.092 246.028 387.092 246.028L399 194.934C399 194.934 375.56 192.69 367.371 188.229Z" fill="#263238" stroke="#263238" stroke-linecap="round" stroke-linejoin="round"/>
<path d="M371.356 239.314L371.731 222.185L380.809 224.099C380.809 224.099 374.809 237.317 371.356 239.314Z" fill="white" stroke="#263238" stroke-linecap="round" stroke-linejoin="round"/>
<path d="M378.308 215.993C378.308 215.993 375.89 212.53 375.111 211.779C374.333 211.028 370.485 208.811 369.743 208.811C369.001 208.811 365.017 208.564 364.247 208.564C363.478 208.564 362.608 210.304 363.396 211.046C364.183 211.788 366.922 212.036 366.922 212.036L368.8 214.784L360.327 214.042C360.327 214.042 358.916 215.535 359.237 216.79C359.477 217.64 359.783 218.47 360.153 219.272C360.121 221.093 360.216 222.914 360.437 224.722C360.767 226.215 362.269 226.71 364.33 227.947C366.391 229.183 373.288 228.441 373.288 228.441H376.476L378.308 215.993Z" fill="white" stroke="#263238" stroke-linecap="round" stroke-linejoin="round"/>
<path d="M398.964 217.715L376.98 214.756C376.98 214.756 375.267 228.899 373.536 233.608C371.804 238.316 371.356 239.314 371.356 239.314C371.356 239.314 394.393 238.801 399.825 238.307C405.257 237.812 408.307 234.578 408.069 230.118C407.831 225.657 405.11 221.187 405.11 221.187" fill="white"/>
<path d="M398.964 217.715L376.98 214.756C376.98 214.756 375.267 228.899 373.536 233.608C371.804 238.316 371.356 239.314 371.356 239.314C371.356 239.314 394.393 238.801 399.825 238.307C405.257 237.812 408.307 234.578 408.069 230.118C407.831 225.657 405.11 221.187 405.11 221.187" stroke="#263238" stroke-linecap="round" stroke-linejoin="round"/>
<path d="M307.29 233.159C307.29 233.159 312.42 236.374 313.702 237.372C314.985 238.371 315.095 244.81 315.91 246.047C316.725 247.283 315.763 248.034 314.28 248.034C312.796 248.034 310.551 243.326 310.551 243.326L310.46 241.586L299.981 245.067L297.233 240.358C297.233 240.358 300.347 233.159 307.29 233.159Z" fill="white" stroke="#263238" stroke-linecap="round" stroke-linejoin="round"/>
<path d="M230.951 427.772C257.424 427.772 278.885 422.933 278.885 416.963C278.885 410.994 257.424 406.154 230.951 406.154C204.478 406.154 183.017 410.994 183.017 416.963C183.017 422.933 204.478 427.772 230.951 427.772Z" fill="#263238" stroke="#263238" stroke-linecap="round" stroke-linejoin="round"/>
<path d="M268.388 160.108C268.388 160.108 274.672 191.645 275.789 197.48C276.907 203.315 278.959 217.184 281.285 223.266C283.612 229.348 282.852 237.134 281.688 239.323C280.521 241.226 279.181 243.016 277.685 244.673L269.881 234.496C269.881 234.496 265.237 184.629 265.063 177.567C264.889 170.504 268.388 160.108 268.388 160.108Z" fill="white" stroke="#263238" stroke-linecap="round" stroke-linejoin="round"/>
<path d="M272.528 233.25C272.528 233.25 277.475 236.337 278.345 237.647C279.215 238.957 279.838 240.624 279.16 242.044C278.482 243.464 274.791 247.751 273.857 248.584C272.922 249.418 272.134 246.093 272.025 243.235C271.915 240.377 272.528 233.25 272.528 233.25Z" fill="white" stroke="#263238" stroke-linecap="round" stroke-linejoin="round"/>
<path d="M245.928 406.191C245.928 406.191 261.436 413.73 262.416 415.195C263.396 416.661 259.86 418.612 250.618 418.612C241.375 418.612 241.1 417.394 237.427 416.423C233.754 415.452 226.435 416.175 225.446 413.986C224.457 411.797 226.179 404.258 226.179 404.258L245.928 406.191Z" fill="white" stroke="#263238" stroke-linecap="round" stroke-linejoin="round"/>
<path d="M225.336 410.084C225.336 410.084 238.16 417.87 237.033 420.545C235.907 423.219 226.637 423.219 221.754 422.487C216.872 421.754 206.494 415.159 205.944 412.759C205.395 410.359 206.769 406.676 214.289 405.953C221.809 405.229 225.336 410.084 225.336 410.084Z" fill="white" stroke="#263238" stroke-linecap="round" stroke-linejoin="round"/>
<path d="M264.266 282.861C264.266 282.861 256.938 339.295 255.665 347.567C254.392 355.838 250.352 368.974 248.172 378.949C246.936 384.816 246.019 390.745 245.424 396.71C245.201 398.407 245.241 400.128 245.543 401.812C245.854 404.249 245.9 406.191 245.9 406.191C242.638 407.009 239.319 407.579 235.971 407.895C231.84 408.142 226.243 408.142 226.243 408.142L224.411 392.332C224.411 392.332 225.776 368.974 226.582 362.168C227.388 355.362 228.249 301.84 228.212 300.375C228.176 298.909 227.855 286.021 227.855 286.021L252.816 283.346C252.816 283.346 256.224 273.618 261.344 274.104C266.464 274.589 264.266 282.861 264.266 282.861Z" fill="white" stroke="#263238" stroke-linecap="round" stroke-linejoin="round"/>
<path d="M261.381 274.104C256.26 273.618 252.853 283.346 252.853 283.346L227.864 286.021C227.864 286.021 227.947 289.447 228.029 292.964C230.695 293.202 233.159 293.34 235.265 293.34C243.272 293.327 251.271 292.877 259.228 291.993L260.3 280.781L261.976 292.204L263.13 291.828C263.845 286.387 264.303 282.842 264.303 282.842C264.303 282.842 266.501 274.589 261.381 274.104Z" fill="#263238" stroke="#263238" stroke-linecap="round" stroke-linejoin="round"/>
<path d="M201.795 284.564C201.795 284.564 201.795 284.913 201.85 285.545C202.189 292.195 204.204 330.731 204.818 337.839C205.505 345.625 202.07 354.135 202.244 361.188C202.418 368.241 204.076 406.438 204.076 406.438L205.908 412.759C205.908 412.759 210.213 409.846 214.344 409.846C218.475 409.846 225.336 410.084 225.336 410.084C225.336 410.084 225.693 404.973 225.657 403.278C225.62 401.583 225.464 395.492 225.464 395.492C225.464 395.492 232.453 363.624 232.875 360.95C233.296 358.275 238.719 312.054 238.682 310.57C238.645 309.086 239.827 288.43 239.827 288.43L201.795 284.564Z" fill="white" stroke="#263238" stroke-linecap="round" stroke-linejoin="round"/>
<path d="M239.571 293.294C239.726 290.473 239.836 288.457 239.836 288.457L201.795 284.564C201.795 284.564 201.795 284.913 201.85 285.545C201.85 286.351 201.951 287.624 202.042 289.209C210.936 290.802 226.371 293.312 235.265 293.312C236.731 293.34 238.16 293.321 239.571 293.294Z" fill="#263238" stroke="#263238" stroke-linecap="round" stroke-linejoin="round"/>
<path d="M229.824 135.202C229.824 135.202 225.803 135.879 224.273 137.675C222.74 139.421 221.361 141.297 220.151 143.281C219.941 143.959 196.29 158.312 196.29 158.312L197.993 226.756C197.993 226.756 198.699 237.299 197.444 240.89C195.324 247.95 194.295 255.292 194.394 262.663C194.613 271.411 195.181 285.563 195.181 285.563C195.181 285.563 222.249 290.949 235.265 290.949C243.272 290.93 251.271 290.474 259.228 289.584L260.3 278.363L261.93 289.813L267.49 287.981L272.07 254.089C272.07 254.089 275.258 246.908 275.221 245.332C275.185 243.757 276.027 241.742 275.102 240.395C274.177 239.048 272.528 236.355 272.528 236.355C272.528 236.355 268.388 162.132 268.388 160.108C268.388 158.083 256.141 146.203 255.234 145.754C254.327 145.305 248.74 136.997 241.494 134.762C234.249 132.527 229.824 135.202 229.824 135.202Z" fill="white" stroke="#263238" stroke-linecap="round" stroke-linejoin="round"/>
<path d="M222.451 145.525L219.739 170.174L230.878 175.35L228.093 183.713L255.949 232.664" stroke="#263238" stroke-linecap="round" stroke-linejoin="round"/>
<path d="M253.567 148.291L261.921 167.793L258.339 172.565L264.312 180.919L261.921 234.652" stroke="#263238" stroke-linecap="round" stroke-linejoin="round"/>
<path d="M228.789 138.572C228.992 143.381 229.865 148.138 231.382 152.706C233.791 159.439 249.757 205.889 249.757 205.889L260.08 242.236C260.08 242.236 258.715 205.211 258.678 203.645C258.642 202.079 250.856 150.682 250.856 150.682C250.856 150.682 249.528 142.383 247.43 139.241C245.332 136.099 231.272 130.264 228.789 138.572Z" fill="#00DF70" stroke="#263238" stroke-linecap="round" stroke-linejoin="round"/>
<path d="M227.8 134.982C227.8 134.982 221.306 135.65 222.451 145.525C223.596 155.399 225.107 162.132 225.107 162.132" stroke="#263238" stroke-width="2" stroke-linecap="round" stroke-linejoin="round"/>
<path d="M224.31 175.148C224.31 175.148 227.058 186.589 228.936 189.731C230.814 192.873 236.493 196.015 240.532 196.015" stroke="#263238" stroke-linecap="round" stroke-linejoin="round"/>
<path d="M232.994 172.455C232.994 172.455 236.017 185.692 236.52 188.165C237.024 190.638 235.357 195.337 232.554 200.073" stroke="#263238" stroke-linecap="round" stroke-linejoin="round"/>
<path d="M231.748 201.639C231.46 201.48 231.246 201.214 231.153 200.898C231.06 200.583 231.096 200.243 231.253 199.954L231.574 199.367C231.653 199.227 231.759 199.104 231.886 199.006C232.013 198.907 232.158 198.835 232.313 198.793C232.469 198.751 232.631 198.741 232.79 198.762C232.949 198.784 233.103 198.837 233.241 198.919C233.529 199.077 233.744 199.343 233.838 199.658C233.932 199.973 233.899 200.313 233.745 200.604L233.424 201.181C233.345 201.322 233.239 201.446 233.112 201.546C232.984 201.646 232.838 201.719 232.682 201.761C232.526 201.804 232.363 201.815 232.203 201.794C232.042 201.773 231.888 201.72 231.748 201.639Z" fill="#263238"/>
<path d="M242.035 196.262C242.035 196.424 242.002 196.584 241.939 196.732C241.876 196.881 241.784 197.015 241.667 197.127C241.551 197.239 241.413 197.327 241.262 197.384C241.111 197.442 240.95 197.468 240.789 197.462H240.12C239.791 197.455 239.477 197.318 239.247 197.082C239.018 196.845 238.89 196.528 238.893 196.198C238.891 196.037 238.923 195.877 238.985 195.729C239.047 195.58 239.139 195.446 239.254 195.333C239.37 195.221 239.507 195.134 239.657 195.076C239.808 195.018 239.968 194.992 240.129 194.998H240.798C241.128 195.008 241.441 195.145 241.672 195.38C241.902 195.616 242.032 195.932 242.035 196.262Z" fill="#263238"/>
<path d="M224.328 176.046L222.79 166.291C222.618 165.285 222.836 164.251 223.399 163.4C223.962 162.55 224.828 161.945 225.821 161.711C226.892 161.467 228.014 161.648 228.954 162.215C229.893 162.782 230.576 163.692 230.859 164.752L233.488 174.461" stroke="#263238" stroke-width="2" stroke-linecap="round" stroke-linejoin="round"/>
<path d="M260.537 182.639C262.742 182.418 264.323 180.179 264.068 177.637C263.813 175.094 261.82 173.213 259.615 173.434C257.41 173.654 255.829 175.894 256.084 178.436C256.338 180.978 258.332 182.86 260.537 182.639Z" fill="white" stroke="#263238" stroke-linecap="round" stroke-linejoin="round"/>
<path d="M249.271 139.095C249.271 139.095 258.092 151.506 260.904 176.806" stroke="#263238" stroke-width="2" stroke-linecap="round" stroke-linejoin="round"/>
<path d="M261.139 179.735C262.342 179.623 263.213 178.393 263.082 176.988C262.951 175.583 261.869 174.534 260.666 174.646C259.462 174.758 258.592 175.988 258.722 177.393C258.853 178.799 259.935 179.847 261.139 179.735Z" fill="white" stroke="#263238" stroke-linecap="round" stroke-linejoin="round"/>
<path d="M274.031 235.183C273.489 236.86 273.046 238.566 272.702 240.294C272.702 241.027 272.528 243.216 270.815 242.722C269.103 242.227 269.615 233.479 269.835 232.508C270.055 231.537 274.223 234.679 274.223 234.679" fill="white"/>
<path d="M274.031 235.183C273.489 236.86 273.046 238.566 272.702 240.294C272.702 241.027 272.528 243.216 270.815 242.722C269.103 242.227 269.615 233.479 269.835 232.508C270.055 231.537 274.223 234.679 274.223 234.679" stroke="#263238" stroke-linecap="round" stroke-linejoin="round"/>
<path d="M218.429 227.434C219.953 228.272 221.655 228.734 223.394 228.78C226.087 228.78 231.006 227.864 232.811 228.331C234.615 228.798 239.223 234.606 239.223 234.606C239.223 234.606 240.597 235.952 239.946 236.63C239.296 237.308 237.968 238.462 237.052 237.748C236.136 237.033 231.556 233.259 231.556 233.259L220.005 237.977L215.26 235.504L218.429 227.434Z" fill="white" stroke="#263238" stroke-linecap="round" stroke-linejoin="round"/>
<path d="M200.741 156.746C200.741 156.746 193.129 157.662 191.838 159.659C190.546 161.656 169.689 207.456 169.735 209.48C169.781 211.504 211.44 244.288 211.44 244.288L220.435 227.168L197.929 206.301L207.694 183.64" fill="white"/>
<path d="M200.741 156.746C200.741 156.746 193.129 157.662 191.838 159.659C190.546 161.656 169.689 207.456 169.735 209.48C169.781 211.504 211.44 244.288 211.44 244.288L220.435 227.168L197.929 206.301L207.694 183.64" stroke="#263238" stroke-linecap="round" stroke-linejoin="round"/>
<path d="M214.784 252.559L236.786 253.008L236.676 239.323" stroke="#263238" stroke-linecap="round" stroke-linejoin="round"/>
<path d="M220.032 237.977L214.216 240.148" stroke="#263238" stroke-linecap="round" stroke-linejoin="round"/>
<path d="M226.664 125.327C226.664 125.327 229.165 144.856 230.814 147.769C232.462 150.682 244.187 162.352 244.187 162.352C244.187 162.352 247.851 148.896 248.263 145.754C248.676 142.612 248.996 130.045 248.996 130.045L226.618 123.761L226.664 125.327Z" fill="white" stroke="#263238" stroke-linecap="round" stroke-linejoin="round"/>
<path d="M226.664 125.327C226.664 125.327 226.957 127.617 227.406 130.741C229.16 132.374 231.164 133.716 233.342 134.716C236.227 135.989 243.922 136.704 248.786 136.136C248.914 132.847 248.996 130.045 248.996 130.045L226.618 123.761L226.664 125.327Z" fill="#263238" stroke="#263238" stroke-linecap="round" stroke-linejoin="round"/>
<path d="M220.179 108.28C220.179 108.28 217.184 105.138 215.7 108.72C214.216 112.302 217.532 117.697 219.3 117.926C220.349 118.063 221.414 117.985 222.432 117.697C222.432 117.697 223.687 122.863 224.841 124.429C227.113 127.302 230.024 129.604 233.342 131.153C237.427 132.985 251.103 133.635 252.834 131.153C254.566 128.67 254.465 115.443 254.437 114.326C254.41 113.208 254.217 97.215 254.217 97.215C254.217 97.215 255.445 91.6641 253.778 87.8444C252.111 84.0247 235.375 78.6844 231.171 80.8919C226.966 83.0995 222.121 86.9467 221.791 91.8839C221.461 96.8212 221.663 104.9 221.663 104.9L220.179 108.28Z" fill="white" stroke="#263238" stroke-linecap="round" stroke-linejoin="round"/>
<path d="M244.911 101.319C244.911 101.319 247.705 114.143 247.064 115.682C246.422 117.22 244.416 117.248 241.906 115.901C239.397 114.555 240.707 112.76 240.707 112.76" stroke="#263238" stroke-linecap="round" stroke-linejoin="round"/>
<path d="M235.183 116.13C235.183 116.13 236.392 119.492 238.636 119.721C240.88 119.95 246.514 120.39 246.514 120.39" stroke="#263238" stroke-linecap="round" stroke-linejoin="round"/>
<path d="M227.168 101.768L227.525 107.154C227.525 107.154 229.577 108.28 234.285 108.28C238.994 108.28 240.542 107.154 240.542 107.154L240.413 101.768C240.413 101.768 233.58 97.728 227.168 101.768Z" stroke="#263238" stroke-linecap="round" stroke-linejoin="round"/>
<path d="M244.929 101.768L246.633 107.383C246.633 107.383 247.329 108.299 252.047 108.299C256.764 108.299 258.312 107.172 258.312 107.172L258.175 101.786C258.175 101.786 251.332 97.728 244.929 101.768Z" stroke="#263238" stroke-linecap="round" stroke-linejoin="round"/>
<path d="M240.441 101.768H244.929" stroke="#263238" stroke-linecap="round" stroke-linejoin="round"/>
<path d="M227.195 101.768L218.347 106.934" stroke="#263238" stroke-linecap="round" stroke-linejoin="round"/>
<path d="M229.376 99.0745C229.376 99.0745 231.775 96.3815 237.217 98.6257" stroke="#263238" stroke-linecap="round" stroke-linejoin="round"/>
<path d="M245.754 99.0746C246.562 98.4263 247.536 98.0195 248.566 97.9012C249.595 97.7829 250.636 97.9578 251.57 98.4059" stroke="#263238" stroke-linecap="round" stroke-linejoin="round"/>
<path d="M235.11 104.241C235.11 105.23 234.752 106.073 234.258 106.073C233.763 106.073 233.342 105.267 233.342 104.241C233.342 103.215 233.699 102.409 234.203 102.409C234.707 102.409 235.091 103.242 235.11 104.241Z" fill="#263238"/>
<path d="M249.473 104.012C249.473 105.001 249.115 105.844 248.621 105.844C248.126 105.844 247.705 105.038 247.705 104.012C247.705 102.986 248.062 102.18 248.557 102.18C249.051 102.18 249.445 103.022 249.473 104.012Z" fill="#263238"/>
<path d="M234.102 83.2552C234.102 83.2552 236.264 88.0275 233.58 89.7679C232.752 90.2472 231.812 90.4995 230.855 90.4995C229.898 90.4995 228.958 90.2472 228.13 89.7679C228.843 90.7536 229.242 91.9321 229.273 93.1485C229.304 94.3649 228.966 95.5622 228.304 96.583C226.988 98.7751 225.454 100.828 223.724 102.711C223.724 102.711 224.209 108.509 223.202 109.187C222.194 109.865 219.446 108.848 219.4 107.144C219.355 105.441 218.255 102.033 218.21 100.329C218.164 98.6257 217.376 94.1922 217.376 94.1922C217.376 94.1922 210.488 91.1236 214.142 87.3772C217.797 83.6307 225.556 80.5621 225.556 80.5621C225.556 80.5621 225.73 73.7471 230.447 71.7044C235.165 69.6617 245.314 66.5931 245.396 70.0007C245.526 71.7543 245.21 73.5122 244.48 75.1119C244.48 75.1119 252.99 74.773 258.926 80.6079C264.861 86.4429 264.66 91.8564 261.591 91.8564C258.523 91.8564 257.524 92.5343 257.524 92.5343C257.524 92.5343 263.396 95.9418 260.373 97.6455C257.35 99.3493 254.236 97.3066 254.236 97.3066C254.236 97.3066 255.537 94.925 251.708 91.8106C247.879 88.6962 234.102 83.2552 234.102 83.2552Z" fill="#263238" stroke="#263238" stroke-linecap="round" stroke-linejoin="round"/>
<path d="M117.871 427.772C144.344 427.772 165.805 422.933 165.805 416.963C165.805 410.994 144.344 406.154 117.871 406.154C91.3975 406.154 69.9366 410.994 69.9366 416.963C69.9366 422.933 91.3975 427.772 117.871 427.772Z" fill="#263238" stroke="#263238" stroke-linecap="round" stroke-linejoin="round"/>
<path d="M149.436 193.395V202.152L162.169 207.987C162.169 207.987 163.497 202.152 162.434 191.801L149.436 193.395Z" fill="#999999" stroke="#263238" stroke-linecap="round" stroke-linejoin="round"/>
<path d="M86.2414 403.535C83.3271 406.036 80.5736 408.719 77.9974 411.568C74.3334 415.699 73.6189 419.812 77.0264 421.781C80.434 423.751 85.7834 423.238 91.6183 419.592C97.4532 415.946 97.2151 414.481 100.623 413.272C104.03 412.063 106.219 409.608 106.219 405.724C106.219 401.84 93.8076 401.345 91.1328 401.144C88.4581 400.942 86.2414 403.535 86.2414 403.535Z" fill="white" stroke="#263238" stroke-linecap="round" stroke-linejoin="round"/>
<path d="M106.192 405.724C106.192 405.724 100.696 408.16 98.0303 410.377C95.3648 412.594 90.052 420.572 83.8415 420.572C80.6788 420.575 77.5686 419.764 74.8097 418.218C74.8138 418.956 75.02 419.678 75.406 420.306C75.792 420.934 76.343 421.445 76.999 421.781C80.4065 423.723 85.7559 423.238 91.5908 419.592C97.4258 415.946 97.1876 414.481 100.595 413.272C104.003 412.063 106.192 409.617 106.192 405.724Z" stroke="#263238" stroke-linecap="round" stroke-linejoin="round"/>
<path d="M147.971 403.535C150.885 406.036 153.638 408.719 156.215 411.568C159.879 415.699 160.593 419.812 157.186 421.781C153.778 423.751 148.429 423.238 142.594 419.592C136.759 415.946 136.997 414.481 133.589 413.272C130.182 412.063 127.993 409.608 127.993 405.724C127.993 401.84 140.404 401.345 143.079 401.144C145.754 400.942 147.971 403.535 147.971 403.535Z" fill="white" stroke="#263238" stroke-linecap="round" stroke-linejoin="round"/>
<path d="M128.02 405.724C128.02 405.724 133.516 408.16 136.182 410.377C138.847 412.594 144.16 420.572 150.371 420.572C153.533 420.575 156.643 419.764 159.402 418.218C159.398 418.956 159.192 419.678 158.806 420.306C158.42 420.934 157.869 421.445 157.213 421.781C153.806 423.723 148.456 423.238 142.621 419.592C136.786 415.946 137.024 414.481 133.617 413.272C130.209 412.063 128.02 409.617 128.02 405.724Z" stroke="#263238" stroke-linecap="round" stroke-linejoin="round"/>
<path d="M79.1882 265.365C79.1882 265.365 80.6446 320.096 81.3774 328.129C82.1102 336.163 84.272 354.4 84.272 355.408C84.272 356.416 85.4811 396.765 85.4811 396.765L83.2919 400.429L84.0247 405.541L93.7526 407.483C98.6166 408.454 104.946 409.919 105.917 408.948C106.888 407.977 107.135 406.026 107.621 403.351C108.106 400.677 109.077 395.804 108.106 391.92C107.135 388.036 109.325 346.669 109.572 345.698C109.819 344.727 115.416 304.771 115.416 304.771C115.416 304.771 119.08 337.619 121.736 347.585C124.393 357.551 123.44 372.4 124.411 378.235C125.382 384.07 127.333 403.782 127.58 405.238C127.828 406.695 128.304 408.902 128.304 408.902C128.304 408.902 140.469 407.199 142.658 406.218C144.877 405.401 147.156 404.752 149.473 404.277C149.473 404.277 150.197 390.408 149.226 384.812C148.518 380.879 148.111 376.898 148.007 372.904C148.007 371.2 149.226 317.202 149.226 317.202L148.007 264.898C148.007 264.898 115.169 268.306 102.519 265.869C89.8688 263.432 79.4355 261.976 79.4355 261.976L79.1882 265.365Z" fill="#00DF70" stroke="#263238" stroke-linecap="round" stroke-linejoin="round"/>
<path d="M102.537 265.851C89.8871 263.423 79.4355 261.976 79.4355 261.976L79.1882 265.374C79.1882 265.374 79.2706 268.516 79.408 273.389C85.2063 275.011 96.9861 277.859 108.372 277.859C120.408 277.859 139.58 274.195 148.209 272.446L148.026 264.889C148.026 264.889 115.187 268.287 102.537 265.851Z" fill="#263238" stroke="#263238" stroke-linecap="round" stroke-linejoin="round"/>
<path d="M144.792 389.108C144.948 390.784 145.049 391.746 145.049 391.746" stroke="#263238" stroke-linecap="round" stroke-linejoin="round"/>
<path d="M141.064 278.208C141.064 278.208 141.98 325.217 141.98 342.96C141.98 355.234 143.464 373.865 144.38 384.18" stroke="#263238" stroke-linecap="round" stroke-linejoin="round"/>
<path d="M91.829 275.551L94.0457 326.554" stroke="#263238" stroke-linecap="round" stroke-linejoin="round"/>
<path d="M93.5969 330.539V338.966" stroke="#263238" stroke-linecap="round" stroke-linejoin="round"/>
<path d="M105.129 136.887C103.932 136.893 102.753 137.185 101.69 137.738C100.628 138.291 99.7123 139.089 99.0196 140.066C97.5047 142.064 95.8191 143.928 93.9816 145.635L72.2266 157.314L74.3517 240.358L75.1486 268.754C75.1486 268.754 91.8565 274.324 107.777 274.324C123.697 274.324 152.083 267.912 152.083 267.912C152.083 267.912 149.702 157.277 150.499 157.277C151.296 157.277 134.844 142.988 127.416 139.232C119.987 135.476 105.129 136.887 105.129 136.887Z" fill="#00DF70" stroke="#263238" stroke-linecap="round" stroke-linejoin="round"/>
<path d="M98.928 146.926C98.928 146.926 107.355 162.453 110.909 169.552C114.463 176.651 121.095 186.864 121.095 186.864L132.188 157.149" stroke="#263238" stroke-linecap="round" stroke-linejoin="round"/>
<path d="M105.157 245.406L104.726 233.012L79.692 231.556C79.692 231.556 79.9393 249.802 80.4248 250.792" stroke="#263238" stroke-linecap="round" stroke-linejoin="round"/>
<path d="M105.459 254.181L105.34 250.7" stroke="#263238" stroke-linecap="round" stroke-linejoin="round"/>
<path d="M135.137 252.23L134.405 231.803C134.405 231.803 143.162 232.527 150.462 227.663" stroke="#263238" stroke-linecap="round" stroke-linejoin="round"/>
<path d="M97.5998 183.127C98.3692 185.554 100.714 186.983 102.83 186.305C104.946 185.627 106.018 183.108 105.239 180.681C104.461 178.254 102.125 176.825 100.009 177.502C97.8929 178.18 96.8212 180.699 97.5998 183.127Z" stroke="#263238" stroke-linecap="round" stroke-linejoin="round"/>
<path d="M97.8471 140.624C97.8471 140.624 95.035 151.433 101.429 180.773" stroke="#263238" stroke-width="2" stroke-linecap="round" stroke-linejoin="round"/>
<path d="M103.398 181.78C103.21 182.16 102.916 182.478 102.552 182.696C102.188 182.915 101.77 183.024 101.346 183.011C100.921 182.998 100.51 182.864 100.16 182.624C99.8099 182.385 99.536 182.05 99.3707 181.659C99.2054 181.268 99.1557 180.838 99.2274 180.42C99.2992 180.002 99.4895 179.613 99.7756 179.3C100.062 178.987 100.432 178.762 100.842 178.653C101.252 178.544 101.684 178.555 102.088 178.684C102.67 178.924 103.134 179.383 103.379 179.963C103.624 180.543 103.631 181.196 103.398 181.78Z" stroke="#263238" stroke-linecap="round" stroke-linejoin="round"/>
<path d="M149.436 155.72C149.436 155.72 153.412 158.642 153.677 159.705C153.943 160.767 167.472 193.129 167.472 193.129L147.842 196.024L148.108 176.916" fill="#00DF70"/>
<path d="M149.436 155.72C149.436 155.72 153.412 158.642 153.677 159.705C153.943 160.767 167.472 193.129 167.472 193.129L147.842 196.024L148.108 176.916" stroke="#263238" stroke-linecap="round" stroke-linejoin="round"/>
<path d="M74.883 156.251C74.883 156.251 70.3671 156.782 69.3046 160.227C68.242 163.671 60.5568 198.699 60.5568 198.699L88.678 196.024L86.0216 169.753" fill="#00DF70"/>
<path d="M74.883 156.251C74.883 156.251 70.3671 156.782 69.3046 160.227C68.242 163.671 60.5568 198.699 60.5568 198.699L88.678 196.024L86.0216 169.753" stroke="#263238" stroke-linecap="round" stroke-linejoin="round"/>
<path d="M129.202 138.975C129.202 138.975 136.173 142.951 136.86 152.844C137.547 162.737 136.86 165.246 136.86 165.246" stroke="#263238" stroke-width="2" stroke-linecap="round" stroke-linejoin="round"/>
<path d="M140.011 177.915C140.011 177.915 139.388 189.612 138.114 192.992C136.841 196.372 131.803 200.375 127.809 201.016" stroke="#263238" stroke-linecap="round" stroke-linejoin="round"/>
<path d="M130.988 176.651C130.988 176.651 130.429 190.143 130.374 192.653C130.319 195.163 132.847 199.532 136.475 203.718" stroke="#263238" stroke-linecap="round" stroke-linejoin="round"/>
<path d="M137.515 205.188L137.622 205.102C138.121 204.697 138.197 203.964 137.793 203.465L137.279 202.832C136.875 202.333 136.142 202.257 135.643 202.661L135.536 202.748C135.037 203.152 134.961 203.885 135.365 204.384L135.879 205.017C136.284 205.516 137.016 205.593 137.515 205.188Z" fill="#263238"/>
<path d="M126.375 201.444L126.401 201.579C126.521 202.21 127.129 202.625 127.76 202.505L128.561 202.353C129.193 202.234 129.607 201.625 129.488 200.994L129.462 200.859C129.343 200.228 128.734 199.813 128.103 199.932L127.302 200.084C126.67 200.204 126.256 200.813 126.375 201.444Z" fill="#263238"/>
<path d="M140.148 178.803L139.882 168.975C139.858 167.949 139.452 166.97 138.744 166.228C138.036 165.486 137.076 165.035 136.053 164.962C134.967 164.882 133.893 165.234 133.065 165.943C132.238 166.652 131.725 167.659 131.638 168.746L130.814 178.712" stroke="#263238" stroke-width="2" stroke-linecap="round" stroke-linejoin="round"/>
<path d="M162.966 201.355L156.636 200.027L134.35 196.317L103.096 190.363L95.6854 187.093C95.6854 187.093 88.678 177.933 88.0734 177.017C87.4689 176.101 79.5455 179.298 79.8294 180.516C80.1134 181.734 81.0477 193.908 81.6614 194.677C82.2751 195.447 89.1177 195.438 89.1177 195.438C89.1177 195.438 121.764 211.193 123.12 211.77C141.962 219.712 151.048 219.638 154.264 220.161C157.479 220.683 159.576 219.382 161.427 217.257C163.277 215.132 162.966 201.355 162.966 201.355Z" fill="#999999" stroke="#263238" stroke-linecap="round" stroke-linejoin="round"/>
<path d="M87.1208 176.889C87.1208 176.889 83.3194 177.045 77.686 180.846C75.5883 182.266 74.4891 183.282 74.4891 183.896C74.6092 184.626 74.8152 185.34 75.1029 186.021C78.7552 184.262 82.5801 182.887 86.5162 181.918" fill="#999999"/>
<path d="M87.1208 176.889C87.1208 176.889 83.3194 177.045 77.686 180.846C75.5883 182.266 74.4891 183.282 74.4891 183.896C74.6092 184.626 74.8152 185.34 75.1029 186.021C78.7552 184.262 82.5801 182.887 86.5162 181.918" stroke="#263238" stroke-linecap="round" stroke-linejoin="round"/>
<path d="M88.6413 186.635C88.6413 186.635 78.2997 189.218 76.6234 189.53C74.9471 189.841 74.6448 188.156 74.6448 187.551C74.6448 186.946 75.1028 186.021 76.9257 185.114C78.7485 184.208 87.9177 181.762 87.9177 181.762" fill="#999999"/>
<path d="M88.6413 186.635C88.6413 186.635 78.2997 189.218 76.6234 189.53C74.9471 189.841 74.6448 188.156 74.6448 187.551C74.6448 186.946 75.1028 186.021 76.9257 185.114C78.7485 184.208 87.9177 181.762 87.9177 181.762" stroke="#263238" stroke-linecap="round" stroke-linejoin="round"/>
<path d="M89.713 191.352C89.713 191.352 77.6859 192.571 76.7699 191.81C76.4897 191.505 76.2771 191.144 76.146 190.751C76.015 190.358 75.9685 189.942 76.0097 189.53L86.8185 187.24" fill="#999999"/>
<path d="M89.713 191.352C89.713 191.352 77.6859 192.571 76.7699 191.81C76.4897 191.505 76.2771 191.144 76.146 190.751C76.015 190.358 75.9685 189.942 76.0097 189.53L86.8185 187.24" stroke="#263238" stroke-linecap="round" stroke-linejoin="round"/>
<path d="M86.3605 191.957L77.0814 192.415C77.0814 192.415 77.5302 193.789 77.9974 193.935C80.1957 194.478 82.4354 194.837 84.6933 195.007C86.174 195.056 87.6494 195.209 89.1085 195.465" fill="#999999"/>
<path d="M86.3605 191.957L77.0814 192.415C77.0814 192.415 77.5302 193.789 77.9974 193.935C80.1957 194.478 82.4354 194.837 84.6933 195.007C86.174 195.056 87.6494 195.209 89.1085 195.465" stroke="#263238" stroke-linecap="round" stroke-linejoin="round"/>
<path d="M66.3917 198.167C66.3917 198.167 70.6328 216.487 71.6953 217.806C72.7579 219.125 81.5149 217.806 90.2718 215.15C99.0288 212.494 136.173 196.583 136.173 196.583L141.476 197.636C141.476 197.636 139.351 191.004 135.641 190.739C131.931 190.473 88.678 196.024 88.678 196.024L66.3917 198.167Z" fill="#999999" stroke="#263238" stroke-linecap="round" stroke-linejoin="round"/>
<path d="M103.508 125.208C103.508 125.208 103.508 125.602 103.508 126.271C103.59 129.761 103.929 140.844 104.818 143.519C105.88 146.697 120.207 173.5 121.306 171.374C122.405 169.249 129 140.331 129 140.331V128.927C129 128.927 125.547 131.84 119.181 131.84C112.815 131.84 103.508 125.208 103.508 125.208Z" fill="#999999" stroke="#263238" stroke-linecap="round" stroke-linejoin="round"/>
<path d="M124.759 140.927C126.245 140.019 127.665 139.009 129.009 137.904V128.927C129.009 128.927 125.556 131.84 119.19 131.84C112.824 131.84 103.508 125.208 103.508 125.208C103.508 125.208 103.508 125.602 103.508 126.271C103.508 127.498 103.6 129.669 103.71 132.087C103.961 132.49 104.242 132.873 104.552 133.232C106.384 135.348 115.16 140.661 117.285 141.192C119.41 141.723 122.368 142.246 124.759 140.927Z" fill="#263238" stroke="#263238" stroke-linecap="round" stroke-linejoin="round"/>
<path d="M135.376 109.819C135.376 109.819 139.617 107.428 139.617 111.944C139.617 116.46 135.641 121.764 135.641 121.764L135.376 109.819Z" fill="#999999" stroke="#263238" stroke-linecap="round" stroke-linejoin="round"/>
<path d="M97.4349 110.085C97.4349 110.085 91.5909 108.491 91.5909 113.804C91.5909 119.117 96.9037 122.552 96.9037 122.552H100.568C100.568 122.552 102.693 127.864 104.552 129.98C106.412 132.096 115.16 137.409 117.285 137.94C119.41 138.472 122.323 139.003 124.713 137.675C127.717 135.802 130.485 133.576 132.957 131.043C134.02 129.724 135.879 120.701 135.879 120.701C135.879 120.701 136.411 104.516 135.348 98.9463C134.286 93.377 127.388 84.6201 117.834 83.5575C108.28 82.495 99.2578 90.1894 97.9387 96.2899C96.6197 102.39 97.4349 110.085 97.4349 110.085Z" fill="#999999" stroke="#263238" stroke-linecap="round" stroke-linejoin="round"/>
<path d="M114.674 114.335C114.674 114.335 112.842 118.045 116.002 119.107C119.162 120.17 123.165 119.904 123.962 118.311C124.759 116.717 123.431 114.866 123.431 114.866" stroke="#263238" stroke-linecap="round" stroke-linejoin="round"/>
<path d="M111.496 120.967C111.496 120.967 118.127 126.536 127.15 121.233" stroke="#263238" stroke-linecap="round" stroke-linejoin="round"/>
<path d="M115.205 126.005C115.205 126.005 120.784 129.193 124.494 125.474" stroke="#263238" stroke-linecap="round" stroke-linejoin="round"/>
<path d="M112.027 111.147C112.76 111.147 113.355 110.196 113.355 109.022C113.355 107.849 112.76 106.897 112.027 106.897C111.293 106.897 110.699 107.849 110.699 109.022C110.699 110.196 111.293 111.147 112.027 111.147Z" fill="#263238"/>
<path d="M126.353 108.757C126.353 109.929 125.758 110.882 125.025 110.882C124.292 110.882 123.697 109.966 123.697 108.757C123.697 107.548 124.292 106.641 125.025 106.641C125.758 106.641 126.353 107.584 126.353 108.757Z" fill="#263238"/>
<path d="M108.308 106.109C108.308 106.109 109.636 103.984 114.72 104.781" stroke="#263238" stroke-linecap="round" stroke-linejoin="round"/>
<path d="M122.9 105.047C122.9 105.047 125.29 101.328 129.009 105.047" stroke="#263238" stroke-linecap="round" stroke-linejoin="round"/>
<path d="M135.376 98.928C135.031 97.3524 134.434 95.8429 133.608 94.4579C133.299 95.9265 133.191 97.4303 133.287 98.928C133.672 100.87 135.037 103.581 135.037 104.937C135.037 106.293 134.835 111.724 135.806 110.955C135.902 110.853 135.98 110.736 136.035 110.607C136.096 106.703 135.875 102.8 135.376 98.928Z" fill="#263238" stroke="#263238" stroke-linecap="round" stroke-linejoin="round"/>
<path d="M122.039 87.936C123.742 87.8457 125.438 87.6407 127.113 87.3223C124.407 85.2963 121.217 84.0141 117.862 83.6033C108.308 82.5407 99.2852 90.2351 97.9662 96.3357C96.6472 102.436 97.4349 110.131 97.4349 110.131C97.4349 110.131 99.5417 111.596 100.32 110.048C101.099 108.5 100.32 105.972 101.099 103.261C101.878 100.549 103.032 99.1845 103.224 97.0502C103.416 94.9159 102.061 91.8198 102.839 90.0703C103.618 88.3207 108.464 85.0323 111.569 86.1956C114.91 87.461 118.468 88.0525 122.039 87.936Z" fill="#263238" stroke="#263238" stroke-linecap="round" stroke-linejoin="round"/>
</svg>
